  0
SECTION
  2
HEADER
  9
$ACADVER
  1
AC1009
  9
$INSBASE
 10
0.0
 20
0.0
 30
0.0
  9
$EXTMIN
 10
1.0
 20
8.0
 30
0.0
  9
$EXTMAX
 10
23.0
 20
28.0
 30
0.0
  9
$LIMMIN
 10
0.0
 20
0.0
  9
$LIMMAX
 10
30.0
 20
20.0
  9
$ORTHOMODE
 70
     1
  9
$REGENMODE
 70
     1
  9
$FILLMODE
 70
     1
  9
$QTEXTMODE
 70
     0
  9
$MIRRTEXT
 70
     1
  9
$DRAGMODE
 70
     2
  9
$LTSCALE
 40
1.0
  9
$OSMODE
 70
     0
  9
$ATTMODE
 70
     1
  9
$TEXTSIZE
 40
0.2
  9
$TRACEWID
 40
0.05
  9
$TEXTSTYLE
  7
STANDARD
  9
$CLAYER
  8
0
  9
$TEXTSTYLE
  7
ROMANT
  9
$CLAYER
  8
TEXT
  9
$CELTYPE
  6
BYLAYER
  9
$CECOLOR
 62
   256
  9
$DIMSCALE
 40
1.0
  9
$DIMASZ
 40
0.18
  9
$DIMEXO
 40
0.0625
  9
$DIMDLI
 40
0.38
  9
$DIMRND
 40
0.0
  9
$DIMDLE
 40
0.0
  9
$DIMEXE
 40
0.18
  9
$DIMTP
 40
0.0
  9
$DIMTM
 40
0.0
  9
$DIMTXT
 40
0.18
  9
$DIMCEN
 40
0.09
  9
$DIMTSZ
 40
0.0
  9
$DIMTOL
 70
     0
  9
$DIMLIM
 70
     0
  9
$DIMTIH
 70
     0
  9
$DIMTOH
 70
     1
  9
$DIMSE1
 70
     0
  9
$DIMSE2
 70
     0
  9
$DIMTAD
 70
     1
  9
$DIMZIN
 70
     0
  9
$DIMBLK
  1

  9
$DIMASO
 70
     1
  9
$DIMSHO
 70
     1
  9
$DIMPOST
  1

  9
$DIMAPOST
  1

  9
$DIMALT
 70
     0
  9
$DIMALTD
 70
     2
  9
$DIMALTF
 40
25.4
  9
$DIMLFAC
 40
1.0
  9
$DIMTOFL
 70
     0
  9
$DIMTVP
 40
0.0
  9
$DIMTIX
 70
     0
  9
$DIMSOXD
 70
     0
  9
$DIMSAH
 70
     0
  9
$DIMBLK1
  1

  9
$DIMBLK2
  1

  9
$DIMSTYLE
  2
*UNNAMED
  9
$DIMCLRD
 70
     0
  9
$DIMCLRE
 70
     0
  9
$DIMCLRT
 70
     0
  9
$DIMTFAC
 40
1.0
  9
$DIMGAP
 40
0.09
  9
$LUNITS
 70
     2
  9
$LUPREC
 70
     2
  9
$SKETCHINC
 40
0.1
  9
$FILLETRAD
 40
0.0
  9
$AUNITS
 70
     0
  9
$AUPREC
 70
     0
  9
$MENU
  1
acad
  9
$ELEVATION
 40
0.0
  9
$PELEVATION
 40
0.0
  9
$THICKNESS
 40
0.0
  9
$LIMCHECK
 70
     0
  9

$BLIPMODE
 70
     1
  9
$CHAMFERA
 40
0.0
  9
$CHAMFERB
 40
0.0
  9
$SKPOLY
 70
     0
  9
$TDCREATE
 40
2450309.975563773
  9
$TDUPDATE
 40
2450309.975563773
  9
$TDINDWG
 40
0.0000000000
  9
$TDUSRTIMER
 40
0.0000000000
  9
$USRTIMER
 70
     1
  9
$ANGBASE
 50
0.0
  9
$ANGDIR
 70
     0
  9
$PDMODE
 70
     0
  9
$PDSIZE
 40
0.0
  9
$PLINEWID
 40
0.0
  9
$COORDS
 70
     2
  9
$SPLFRAME
 70
     0
  9
$SPLINETYPE
 70
     6
  9
$SPLINESEGS
 70
     8
  9
$ATTDIA
 70
     0
  9
$ATTREQ
 70
     1
  9
$HANDLING
 70
     0
  9
$HANDSEED
  5
0
  9
$SURFTAB1
 70
     6
  9
$SURFTAB2
 70
     6
  9
$SURFTYPE
 70
     6
  9
$SURFU
 70
     6
  9
$SURFV
 70
     6
  9
$UCSNAME
  2

  9
$UCSORG
 10
0.0
 20
0.0
 30
0.0
  9
$UCSXDIR
 10
1.0
 20
0.0
 30
0.0
  9
$UCSYDIR
 10
0.0
 20
1.0
 30
0.0
  9
$PUCSNAME
  2

  9
$PUCSORG
 10
0.0
 20
0.0
 30
0.0
  9
$PUCSXDIR
 10
1.0
 20
0.0
 30
0.0
  9
$PUCSYDIR
 10
0.0
 20
1.0
 30
0.0
  9
$USERI1
 70
     0
  9
$USERI2
 70
     0
  9
$USERI3
 70
     0
  9
$USERI4
 70
     0
  9
$USERI5
 70
     0
  9
$USERR1
 40
0.0
  9
$USERR2
 40
0.0
  9
$USERR3
 40
0.0
  9
$USERR4
 40
0.0
  9
$USERR5
 40
0.0
  9
$WORLDVIEW
 70
     1
  9
$SHADEDGE
 70
     3
  9
$SHADEDif
 70
    70
  9
$TILEMODE
 70
     1
  9
$MAXACTVP
 70
    16
  9
$PINSBASE
 10
0.0
 20
0.0
 30
0.0
  9
$PLIMCHECK
 70
     0
  9
$PEXTMIN
 10
1.0000E+20
 20
1.0000E+20
 30
1.0000E+20
  9
$PEXTMAX
 10
-1.0000E+20
 20
-1.0000E+20
 30
-1.0000E+20
  9
$PLIMMIN
 10
0.0
 20
0.0
  9
$PLIMMAX
 10
12.0
 20
9.0
  9
$UNITMODE
 70
     0
  9
$VISRETAIN
 70
     0
  9
$PLINEGEN
 70
     0
  9
$PSLTSCALE
 70
     1
  9
$TREEDEPTH
 70
  3020
  9
$CELWEIGHT
370
     0
  9
$DWGCODEPAGE
  3
ascii
  0
ENDSEC
  0
SECTION
  2
TABLES
  0
TABLE
  2
VPORT
 70
     2
  0
VPORT
  2
*ACTIVE
 70
     0
 10
0.0
 20
0.0
 11
1.0
 21
1.0
 12
15.0
 22
11.101231
 13
0.0
 23
0.0
 14
0.1
 24
0.1
 15
0.5
 25
0.5
 16
0.0
 26
0.0
 36
1.0
 17
0.0
 27
0.0
 37
0.0
 40
22.202462
 41
1.351201
 42
50.0
 43
0.0
 44
0.0
 50
0.0
 51
0.0
 71
     0
 72
   100
 73
     1
 74
     1
 75
     1
 76
     0
 77
     0
 78
     0
  0
ENDTAB
  0
TABLE
  2
LTYPE
 70
    25
  0
LTYPE
  2
CONTINUOUS
 70
    64
  3
Solid line
 72
    65
 73
     0
 40
0.0
  0
LTYPE
  2
BORDER
 70
    64
  3
__ __ . __ __ . __ __ . __ __ . __ __ . __ __ .
 72
    65
 73
     6
 40
1.75
 49
0.5
 49
-0.25
 49
0.5
 49
-0.25
 49
0.0
 49
-0.25
  0
LTYPE
  2
BORDER2
 70
    64
  3
__.__.__.__.__.__.__.__.__.__.__.__.__.__.__.__
 72
    65
 73
     6
 40
0.875
 49
0.25
 49
-0.125
 49
0.25
 49
-0.125
 49
0.0
 49
-0.125
  0
LTYPE
  2
BORDERX2
 70
    64
  3
____  ____  .  ____  ____  .  ____  ____  .  __
 72
    65
 73
     6
 40
3.5
 49
1.0
 49
-0.5
 49
1.0
 49
-0.5
 49
0.0
 49
-0.5
  0
LTYPE
  2
CENTER
 70
    64
  3
____ _ ____ _ ____ _ ____ _ ____ _ ____ _ ____ 
 72
    65
 73
     4
 40
2.0
 49
1.25
 49
-0.25
 49
0.25
 49
-0.25
  0
LTYPE
  2
CENTER2
 70
    64
  3
___ _ ___ _ ___ _ ___ _ ___ _ ___ _ ___ _ ___ _
 72
    65
 73
     4
 40
1.125
 49
0.75
 49
-0.125
 49
0.125
 49
-0.125
  0
LTYPE
  2
CENTERX2
 70
    64
  3
________  __  ________  __  ________  __  _____
 72
    65
 73
     4
 40
4.0
 49
2.5
 49
-0.5
 49
0.5
 49
-0.5
  0
LTYPE
  2
DASHDOT
 70
    64
  3
__ . __ . __ . __ . __ . __ . __ . __ . __ . __
 72
    65
 73
     4
 40
1.0
 49
0.5
 49
-0.25
 49
0.0
 49
-0.25
  0
LTYPE
  2
DASHDOT2
 70
    64
  3
_._._._._._._._._._._._._._._._._._._._._._._._
 72
    65
 73
     4
 40
0.5
 49
0.25
 49
-0.125
 49
0.0
 49
-0.125
  0
LTYPE
  2
DASHDOTX2
 70
    64
  3
____  .  ____  .  ____  .  ____  .  ____  .  __
 72
    65
 73
     4
 40
2.0
 49
1.0
 49
-0.5
 49
0.0
 49
-0.5
  0
LTYPE
  2
DASHED
 70
    64
  3
__ __ __ __ __ __ __ __ __ __ __ __ __ __ __ __
 72
    65
 73
     2
 40
0.75
 49
0.5
 49
-0.25
  0
LTYPE
  2
DASHED2
 70
    64
  3
_ _ _ _ _ _ _ _ _ _ _ _ _ _ _ _ _ _ _ _ _ _ _ _
 72
    65
 73
     2
 40
0.375
 49
0.25
 49
-0.125
  0
LTYPE
  2
DASHEDX2
 70
    64
  3
____  ____  ____  ____  ____  ____  ____  ____ 
 72
    65
 73
     2
 40
1.5
 49
1.0
 49
-0.5
  0
LTYPE
  2
DIVIDE
 70
    64
  3
____ . . ____ . . ____ . . ____ . . ____ . . __
 72
    65
 73
     6
 40
1.25
 49
0.5
 49
-0.25
 49
0.0
 49
-0.25
 49
0.0
 49
-0.25
  0
LTYPE
  2
DIVIDE2
 70
    64
  3
__..__..__..__..__..__..__..__..__..__..__..__.
 72
    65
 73
     6
 40
0.625
 49
0.25
 49
-0.125
 49
0.0
 49
-0.125
 49
0.0
 49
-0.125
  0
LTYPE
  2
DIVIDEX2
 70
    64
  3
________  .  .  ________  .  .  ________  .  . 
 72
    65
 73
     6
 40
2.5
 49
1.0
 49
-0.5
 49
0.0
 49
-0.5
 49
0.0
 49
-0.5
  0
LTYPE
  2
DOT
 70
    64
  3
. . . . . . . . . . . . . . . . . . . . . . . .
 72
    65
 73
     2
 40
0.25
 49
0.0
 49
-0.25
  0
LTYPE
  2
DOT2
 70
    64
  3
...............................................
 72
    65
 73
     2
 40
0.125
 49
0.0
 49
-0.125
  0
LTYPE
  2
DOTX2
 70
    64
  3
.  .  .  .  .  .  .  .  .  .  .  .  .  .  .  . 
 72
    65
 73
     2
 40
0.5
 49
0.0
 49
-0.5
  0
LTYPE
  2
HIDDEN
 70
    64
  3
__ __ __ __ __ __ __ __ __ __ __ __ __ __ __ __
 72
    65
 73
     2
 40
0.375
 49
0.25
 49
-0.125
  0
LTYPE
  2
HIDDEN2
 70
    64
  3
_ _ _ _ _ _ _ _ _ _ _ _ _ _ _ _ _ _ _ _ _ _ _ _
 72
    65
 73
     2
 40
0.1875
 49
0.125
 49
-0.0625
  0
LTYPE
  2
HIDDENX2
 70
    64
  3
____ ____ ____ ____ ____ ____ ____ ____ ____ __
 72
    65
 73
     2
 40
0.75
 49
0.5
 49
-0.25
  0
LTYPE
  2
PHANTOM
 70
    64
  3
______  __  __  ______  __  __  ______  __  __ 
 72
    65
 73
     6
 40
2.5
 49
1.25
 49
-0.25
 49
0.25
 49
-0.25
 49
0.25
 49
-0.25
  0
LTYPE
  2
PHANTOM2
 70
    64
  3
___ _ _ ___ _ _ ___ _ _ ___ _ _ ___ _ _ ___ _ _
 72
    65
 73
     6
 40
1.25
 49
0.625
 49
-0.125
 49
0.125
 49
-0.125
 49
0.125
 49
-0.125
  0
LTYPE
  2
PHANTOMX2
 70
    64
  3
____________    ____    ____    ____________   
 72
    65
 73
     6
 40
5.0
 49
2.5
 49
-0.5
 49
0.5
 49
-0.5
 49
0.5
 49
-0.5
  0
ENDTAB
  0
TABLE
  2
LAYER
 70
     1
  0
LAYER
  2
0
 70
     0
 62
     7
  6
CONTINUOUS
  0
ENDTAB
  0
TABLE
  2
LAYER
 70
     1
  0
LAYER
  2
TEXT
 70
     0
 62
4
  6
CONTINUOUS
  0
ENDTAB
  0
TABLE
  2
STYLE
 70
     1
  0
STYLE
  2
STANDARD
 70
     0
 40
0.0
 41
1.0
 50
0.0
 71
     0
 42
0.2
  3
ROMANS
  4

  0
ENDTAB
  0
TABLE
  2
STYLE
 70
     1
  0
STYLE
  2
ROMANT
 70
     0
 40
0.0
 41
2.0
 50
0.0
 71
     0
 42
0.2
  3
ROMANT
  4

  0
ENDTAB
  0
TABLE
  2
STYLE
 70
     1
  0
STYLE
  2
ROMANS
 70
     0
 40
0.0
 41
2.0
 50
0.0
 71
     0
 42
0.2
  3
ROMANS
  4

  0
ENDTAB
  0
TABLE
  2
VIEW
 70
     0
  0
ENDTAB
  0
TABLE
  2
UCS
 70
     0
  0
ENDTAB
  0
TABLE
  2
APPID
 70
     1
  0
APPID
  2
ACAD
 70
    64
  0
ENDTAB
  0
TABLE
  2
DIMSTYLE
 70
     0
  0
ENDTAB
  0
ENDSEC
  0
SECTION
  2
BLOCKS
  0
ENDSEC
  0
SECTION
  2
ENTITIES
  0
POLYLINE
  8
0

62
  3
66
   1
10
0
20
0
30
0
70
1
  0
VERTEX
  8
0
10
0
20
0
30
0.00
42
0
  0
VERTEX
  8
0
10
3000
20
0
30
0.00
42
0
  0
VERTEX
  8
0
10
3000
20
350
30
0.00
42
0
  0
VERTEX
  8
0
10
0
20
350
30
0.00
42
0
  0
SEQEND
  8
0
  0
LINE
  8
0

62
  9
10
-3000
20
422.5
30
0.00
11
-1500
21
422.5
31
0.00
  0
LINE
  8
0

62
  9
10
-3000
20
347.5
30
0.00
11
-1500
21
347.5
31
0.00
  0
LINE
  8
0

62
  9
10
-3000
20
422.5
30
0.00
11
-3000
21
347.5
31
0.00
  0
LINE
  8
0

62
  9
10
-2750
20
422.5
30
0.00
11
-2750
21
347.5
31
0.00
  0
LINE
  8
0

62
  9
10
-2500
20
422.5
30
0.00
11
-2500
21
347.5
31
0.00
  0
LINE
  8
0

62
  9
10
-2250
20
422.5
30
0.00
11
-2250
21
347.5
31
0.00
  0
LINE
  8
0

62
  9
10
-2000
20
422.5
30
0.00
11
-2000
21
347.5
31
0.00
  0
LINE
  8
0

62
  9
10
-1750
20
422.5
30
0.00
11
-1750
21
347.5
31
0.00
  0
LINE
  8
0

62
  9
10
-1500
20
422.5
30
0.00
11
-1500
21
347.5
31
0.00
  0
TEXT
  8
TEXT
  7
ROMANS
  41
0.75
62
  7
10
1
20
1
30
0
40
25
  1
LOGITUDINAL REINFORCEMENT QUANTITY
50
0
72
  1
11
-2725
21
447.5
31
0.00
73
  0
  0
TEXT
  8
TEXT
  7
ROMANS
  41
0.75
62
  7
10
1
20
1
30
0
40
25
  1
BAR DIA.
50
0
72
  1
11
-2875
21
372.5
31
0.00
73
  0
  0
TEXT
  8
TEXT
  7
ROMANS
  41
0.75
62
  7
10
1
20
1
30
0
40
25
  1
NOS.
50
0
72
  1
11
-2625
21
372.5
31
0.00
73
  0
  0
TEXT
  8
TEXT
  7
ROMANS
  41
0.75
62
  7
10
1
20
1
30
0
40
25
  1
BAR LENGTH
50
0
72
  1
11
-2375
21
372.5
31
0.00
73
  0
  0
TEXT
  8
TEXT
  7
ROMANS
  41
0.75
62
  7
10
1
20
1
30
0
40
25
  1
LAP LENGTH
50
0
72
  1
11
-2125
21
372.5
31
0.00
73
  0
  0
TEXT
  8
TEXT
  7
ROMANS
  41
0.75
62
  7
10
1
20
1
30
0
40
25
  1
TOTAL LENGTH
50
0
72
  1
11
-1875
21
372.5
31
0.00
73
  0
  0
TEXT
  8
TEXT
  7
ROMANS
  41
0.75
62
  7
10
1
20
1
30
0
40
25
  1
WEIGHT IN KG
50
0
72
  1
11
-1625
21
372.5
31
0.00
73
  0
  0
TEXT
  8
TEXT
  7
ROMANS
  41
0.75
62
  7
10
1
20
1
30
0
40
25
  1
32
50
0
72
  1
11
-2875
21
287.5
31
0.00
73
  0
  0
TEXT
  8
TEXT
  7
ROMANS
  41
0.75
62
  7
10
1
20
1
30
0
40
25
  1
0
50
0
72
  1
11
-2625
21
287.5
31
0.00
73
  0
  0
TEXT
  8
TEXT
  7
ROMANS
  41
0.75
62
  7
10
1
20
1
30
0
40
25
  1
NaN
50
0
72
  1
11
-2375
21
287.5
31
0.00
73
  0
  0
TEXT
  8
TEXT
  7
ROMANS
  41
0.75
62
  7
10
1
20
1
30
0
40
25
  1
NaN
50
0
72
  1
11
-2125
21
287.5
31
0.00
73
  0
  0
TEXT
  8
TEXT
  7
ROMANS
  41
0.75
62
  7
10
1
20
1
30
0
40
25
  1
-
50
0
72
  1
11
-1875
21
287.5
31
0.00
73
  0
  0
TEXT
  8
TEXT
  7
ROMANS
  41
0.75
62
  7
10
1
20
1
30
0
40
25
  1
-
50
0
72
  1
11
-1625
21
287.5
31
0.00
73
  0
  0
TEXT
  8
TEXT
  7
ROMANS
  41
0.75
62
  7
10
1
20
1
30
0
40
25
  1
25
50
0
72
  1
11
-2875
21
212.5
31
0.00
73
  0
  0
TEXT
  8
TEXT
  7
ROMANS
  41
0.75
62
  7
10
1
20
1
30
0
40
25
  1
0
50
0
72
  1
11
-2625
21
212.5
31
0.00
73
  0
  0
TEXT
  8
TEXT
  7
ROMANS
  41
0.75
62
  7
10
1
20
1
30
0
40
25
  1
NaN
50
0
72
  1
11
-2375
21
212.5
31
0.00
73
  0
  0
TEXT
  8
TEXT
  7
ROMANS
  41
0.75
62
  7
10
1
20
1
30
0
40
25
  1
NaN
50
0
72
  1
11
-2125
21
212.5
31
0.00
73
  0
  0
TEXT
  8
TEXT
  7
ROMANS
  41
0.75
62
  7
10
1
20
1
30
0
40
25
  1
-
50
0
72
  1
11
-1875
21
212.5
31
0.00
73
  0
  0
TEXT
  8
TEXT
  7
ROMANS
  41
0.75
62
  7
10
1
20
1
30
0
40
25
  1
-
50
0
72
  1
11
-1625
21
212.5
31
0.00
73
  0
  0
TEXT
  8
TEXT
  7
ROMANS
  41
0.75
62
  7
10
1
20
1
30
0
40
25
  1
20
50
0
72
  1
11
-2875
21
137.5
31
0.00
73
  0
  0
TEXT
  8
TEXT
  7
ROMANS
  41
0.75
62
  7
10
1
20
1
30
0
40
25
  1
0
50
0
72
  1
11
-2625
21
137.5
31
0.00
73
  0
  0
TEXT
  8
TEXT
  7
ROMANS
  41
0.75
62
  7
10
1
20
1
30
0
40
25
  1
NaN
50
0
72
  1
11
-2375
21
137.5
31
0.00
73
  0
  0
TEXT
  8
TEXT
  7
ROMANS
  41
0.75
62
  7
10
1
20
1
30
0
40
25
  1
NaN
50
0
72
  1
11
-2125
21
137.5
31
0.00
73
  0
  0
TEXT
  8
TEXT
  7
ROMANS
  41
0.75
62
  7
10
1
20
1
30
0
40
25
  1
-
50
0
72
  1
11
-1875
21
137.5
31
0.00
73
  0
  0
TEXT
  8
TEXT
  7
ROMANS
  41
0.75
62
  7
10
1
20
1
30
0
40
25
  1
-
50
0
72
  1
11
-1625
21
137.5
31
0.00
73
  0
  0
TEXT
  8
TEXT
  7
ROMANS
  41
0.75
62
  7
10
1
20
1
30
0
40
25
  1
16
50
0
72
  1
11
-2875
21
62.5
31
0.00
73
  0
  0
TEXT
  8
TEXT
  7
ROMANS
  41
0.75
62
  7
10
1
20
1
30
0
40
25
  1
0
50
0
72
  1
11
-2625
21
62.5
31
0.00
73
  0
  0
TEXT
  8
TEXT
  7
ROMANS
  41
0.75
62
  7
10
1
20
1
30
0
40
25
  1
NaN
50
0
72
  1
11
-2375
21
62.5
31
0.00
73
  0
  0
TEXT
  8
TEXT
  7
ROMANS
  41
0.75
62
  7
10
1
20
1
30
0
40
25
  1
NaN
50
0
72
  1
11
-2125
21
62.5
31
0.00
73
  0
  0
TEXT
  8
TEXT
  7
ROMANS
  41
0.75
62
  7
10
1
20
1
30
0
40
25
  1
-
50
0
72
  1
11
-1875
21
62.5
31
0.00
73
  0
  0
TEXT
  8
TEXT
  7
ROMANS
  41
0.75
62
  7
10
1
20
1
30
0
40
25
  1
-
50
0
72
  1
11
-1625
21
62.5
31
0.00
73
  0
  0
TEXT
  8
TEXT
  7
ROMANS
  41
0.75
62
  7
10
1
20
1
30
0
40
25
  1
12
50
0
72
  1
11
-2875
21
-12.5
31
0.00
73
  0
  0
TEXT
  8
TEXT
  7
ROMANS
  41
0.75
62
  7
10
1
20
1
30
0
40
25
  1
38
50
0
72
  1
11
-2625
21
-12.5
31
0.00
73
  0
  0
TEXT
  8
TEXT
  7
ROMANS
  41
0.75
62
  7
10
1
20
1
30
0
40
25
  1
153.9
50
0
72
  1
11
-2375
21
-12.5
31
0.00
73
  0
  0
TEXT
  8
TEXT
  7
ROMANS
  41
0.75
62
  7
10
1
20
1
30
0
40
25
  1
16.42
50
0
72
  1
11
-2125
21
-12.5
31
0.00
73
  0
  0
TEXT
  8
TEXT
  7
ROMANS
  41
0.75
62
  7
10
1
20
1
30
0
40
25
  1
170.32
50
0
72
  1
11
-1875
21
-12.5
31
0.00
73
  0
  0
TEXT
  8
TEXT
  7
ROMANS
  41
0.75
62
  7
10
1
20
1
30
0
40
25
  1
151.5848
50
0
72
  1
11
-1625
21
-12.5
31
0.00
73
  0
  0
TEXT
  8
TEXT
  7
ROMANS
  41
0.75
62
  7
10
1
20
1
30
0
40
25
  1
10
50
0
72
  1
11
-2875
21
-87.5
31
0.00
73
  0
  0
TEXT
  8
TEXT
  7
ROMANS
  41
0.75
62
  7
10
1
20
1
30
0
40
25
  1
0
50
0
72
  1
11
-2625
21
-87.5
31
0.00
73
  0
  0
TEXT
  8
TEXT
  7
ROMANS
  41
0.75
62
  7
10
1
20
1
30
0
40
25
  1
NaN
50
0
72
  1
11
-2375
21
-87.5
31
0.00
73
  0
  0
TEXT
  8
TEXT
  7
ROMANS
  41
0.75
62
  7
10
1
20
1
30
0
40
25
  1
NaN
50
0
72
  1
11
-2125
21
-87.5
31
0.00
73
  0
  0
TEXT
  8
TEXT
  7
ROMANS
  41
0.75
62
  7
10
1
20
1
30
0
40
25
  1
-
50
0
72
  1
11
-1875
21
-87.5
31
0.00
73
  0
  0
TEXT
  8
TEXT
  7
ROMANS
  41
0.75
62
  7
10
1
20
1
30
0
40
25
  1
-
50
0
72
  1
11
-1625
21
-87.5
31
0.00
73
  0
  0
TEXT
  8
TEXT
  7
ROMANS
  41
0.75
62
  7
10
1
20
1
30
0
40
25
  1
8
50
0
72
  1
11
-2875
21
-162.5
31
0.00
73
  0
  0
TEXT
  8
TEXT
  7
ROMANS
  41
0.75
62
  7
10
1
20
1
30
0
40
25
  1
0
50
0
72
  1
11
-2625
21
-162.5
31
0.00
73
  0
  0
TEXT
  8
TEXT
  7
ROMANS
  41
0.75
62
  7
10
1
20
1
30
0
40
25
  1
NaN
50
0
72
  1
11
-2375
21
-162.5
31
0.00
73
  0
  0
TEXT
  8
TEXT
  7
ROMANS
  41
0.75
62
  7
10
1
20
1
30
0
40
25
  1
NaN
50
0
72
  1
11
-2125
21
-162.5
31
0.00
73
  0
  0
TEXT
  8
TEXT
  7
ROMANS
  41
0.75
62
  7
10
1
20
1
30
0
40
25
  1
-
50
0
72
  1
11
-1875
21
-162.5
31
0.00
73
  0
  0
TEXT
  8
TEXT
  7
ROMANS
  41
0.75
62
  7
10
1
20
1
30
0
40
25
  1
-
50
0
72
  1
11
-1625
21
-162.5
31
0.00
73
  0
  0
TEXT
  8
TEXT
  7
ROMANS
  41
0.75
62
  7
10
1
20
1
30
0
40
25
  1
TOTAL IN KG
50
0
72
  1
11
-1875
21
-237.5
31
0.00
73
  0
  0
TEXT
  8
TEXT
  7
ROMANS
  41
0.75
62
  7
10
1
20
1
30
0
40
25
  1
CONC. IN CUM
50
0
72
  1
11
-1875
21
-312.5
31
0.00
73
  0
  0
TEXT
  8
TEXT
  7
ROMANS
  41
0.75
62
  7
10
1
20
1
30
0
40
25
  1
151.58
50
0
72
  1
11
-1625
21
-237.5
31
0.00
73
  0
  0
TEXT
  8
TEXT
  7
ROMANS
  41
0.75
62
  7
10
1
20
1
30
0
40
25
  1
4.252
50
0
72
  1
11
-1625
21
-312.5
31
0.00
73
  0
  0
LINE
  8
0

62
  251
10
-3000
20
337.5
30
0.00
11
-1500
21
337.5
31
0.00
  0
LINE
  8
0

62
  251
10
-3000
20
262.5
30
0.00
11
-1500
21
262.5
31
0.00
  0
LINE
  8
0

62
  251
10
-3000
20
187.5
30
0.00
11
-1500
21
187.5
31
0.00
  0
LINE
  8
0

62
  251
10
-3000
20
112.5
30
0.00
11
-1500
21
112.5
31
0.00
  0
LINE
  8
0

62
  251
10
-3000
20
37.5
30
0.00
11
-1500
21
37.5
31
0.00
  0
LINE
  8
0

62
  251
10
-3000
20
-37.5
30
0.00
11
-1500
21
-37.5
31
0.00
  0
LINE
  8
0

62
  251
10
-3000
20
-112.5
30
0.00
11
-1500
21
-112.5
31
0.00
  0
LINE
  8
0

62
  251
10
-3000
20
-187.5
30
0.00
11
-1500
21
-187.5
31
0.00
  0
LINE
  8
0

62
  251
10
-2000
20
-262.5
30
0.00
11
-1500
21
-262.5
31
0.00
  0
LINE
  8
0

62
  251
10
-2000
20
-337.5
30
0.00
11
-1500
21
-337.5
31
0.00
  0
LINE
  8
0

62
  251
10
-3000
20
337.5
30
0.00
11
-3000
21
-187.5
31
0.00
  0
LINE
  8
0

62
  251
10
-2750
20
337.5
30
0.00
11
-2750
21
-187.5
31
0.00
  0
LINE
  8
0

62
  251
10
-2500
20
337.5
30
0.00
11
-2500
21
-187.5
31
0.00
  0
LINE
  8
0

62
  251
10
-2250
20
337.5
30
0.00
11
-2250
21
-187.5
31
0.00
  0
LINE
  8
0

62
  251
10
-2000
20
337.5
30
0.00
11
-2000
21
-337.5
31
0.00
  0
LINE
  8
0

62
  251
10
-1750
20
337.5
30
0.00
11
-1750
21
-337.5
31
0.00
  0
LINE
  8
0

62
  251
10
-1500
20
337.5
30
0.00
11
-1500
21
-337.5
31
0.00
  0
LINE
  8
0

62
  25
10
0
20
450
30
0.00
11
3000
21
450
31
0.00
  0
LINE
  8
0

62
  25
10
0
20
375
30
0.00
11
0
21
500
31
0.00
  0
POLYLINE
  8
0

62
  40
66
   1
10
0
20
0
30
0
40
60
41
60
70
1
  0
VERTEX
  8
0
10
-2.1875
20
450
30
0.00
42
1
  0
VERTEX
  8
0
10
2.1875
20
450
30
0.00
42
1
  0
SEQEND
  8
0
  0
LINE
  8
0

62
  25
10
3000
20
375
30
0.00
11
3000
21
500
31
0.00
  0
POLYLINE
  8
0

62
  40
66
   1
10
0
20
0
30
0
40
60
41
60
70
1
  0
VERTEX
  8
0
10
2997.8125
20
450
30
0.00
42
1
  0
VERTEX
  8
0
10
3002.1875
20
450
30
0.00
42
1
  0
SEQEND
  8
0
  0
LINE
  8
0

62
  25
10
400
20
375
30
0.00
11
400
21
500
31
0.00
  0
POLYLINE
  8
0

62
  40
66
   1
10
0
20
0
30
0
40
60
41
60
70
1
  0
VERTEX
  8
0
10
397.8125
20
450
30
0.00
42
1
  0
VERTEX
  8
0
10
402.1875
20
450
30
0.00
42
1
  0
SEQEND
  8
0
  0
LINE
  8
0

62
  25
10
2600
20
375
30
0.00
11
2600
21
500
31
0.00
  0
POLYLINE
  8
0

62
  40
66
   1
10
0
20
0
30
0
40
60
41
60
70
1
  0
VERTEX
  8
0
10
2597.8125
20
450
30
0.00
42
1
  0
VERTEX
  8
0
10
2602.1875
20
450
30
0.00
42
1
  0
SEQEND
  8
0
  0
LINE
  8
0

62
  25
10
-100
20
0
30
0.00
11
-100
21
350
31
0.00
  0
LINE
  8
0

62
  25
10
-25
20
0
30
0.00
11
-150
21
0
31
0.00
  0
POLYLINE
  8
0

62
  40
66
   1
10
0
20
0
30
0
40
60
41
60
70
1
  0
VERTEX
  8
0
10
-102.1875
20
0
30
0.00
42
1
  0
VERTEX
  8
0
10
-97.8125
20
0
30
0.00
42
1
  0
SEQEND
  8
0
  0
LINE
  8
0

62
  25
10
-25
20
350
30
0.00
11
-150
21
350
31
0.00
  0
POLYLINE
  8
0

62
  40
66
   1
10
0
20
0
30
0
40
60
41
60
70
1
  0
VERTEX
  8
0
10
-102.1875
20
350
30
0.00
42
1
  0
VERTEX
  8
0
10
-97.8125
20
350
30
0.00
42
1
  0
SEQEND
  8
0
  0
POLYLINE
  8
0

62
  8
66
   1
10
0
20
0
30
0
40
60
41
60
70
1
  0
VERTEX
  8
0
10
51.9375
20
56
30
0.00
42
1
  0
VERTEX
  8
0
10
60.0625
20
56
30
0.00
42
1
  0
SEQEND
  8
0
  0
CIRCLE
  8
0

62
    40
10
56
20
56
30
 0
40
8.125
  0
POLYLINE
  8
0

62
  8
66
   1
10
0
20
0
30
0
40
60
41
60
70
1
  0
VERTEX
  8
0
10
51.9375
20
294
30
0.00
42
1
  0
VERTEX
  8
0
10
60.0625
20
294
30
0.00
42
1
  0
SEQEND
  8
0
  0
CIRCLE
  8
0

62
    40
10
56
20
294
30
 0
40
8.125
  0
POLYLINE
  8
0

62
  8
66
   1
10
0
20
0
30
0
40
60
41
60
70
1
  0
VERTEX
  8
0
10
51.9375
20
175
30
0.00
42
1
  0
VERTEX
  8
0
10
60.0625
20
175
30
0.00
42
1
  0
SEQEND
  8
0
  0
CIRCLE
  8
0

62
    40
10
56
20
175
30
 0
40
8.125
  0
POLYLINE
  8
0

62
  40
66
   1
10
0
20
0
30
0
70
0
  0
VERTEX
  8
0
10
76.17766952966369
20
255.1091270347399
30
0.00
42
0
  0
VERTEX
  8
0
10
47.89339828220179
20
283.3933982822018
30
0.00
42
-0.6681786379192989
  0
VERTEX
  8
0
10
56
20
306.5
30
0.00
42
0
  0
VERTEX
  8
0
10
344
20
306.5
30
0.00
42
-0.41421356237309503
  0
VERTEX
  8
0
10
356.5
20
294
30
0.00
42
0
  0
VERTEX
  8
0
10
356.5
20
56
30
0.00
42
-0.41421356237309503
  0
VERTEX
  8
0
10
344
20
43.5
30
0.00
42
0
  0
VERTEX
  8
0
10
56
20
43.5
30
0.00
42
-0.41421356237309503
  0
VERTEX
  8
0
10
43.5
20
56
30
0.00
42
0
  0
VERTEX
  8
0
10
43.5
20
294
30
0.00
42
-0.6681786379192989
  0
VERTEX
  8
0
10
66.60660171779821
20
302.1066017177982
30
0.00
42
0
  0
VERTEX
  8
0
10
94.89087296526012
20
273.8223304703363
30
0.00
42
0
  0
SEQEND
  8
0
  0
TEXT
  8
TEXT
  7
ROMANS
  41
0.75
62
  7
10
1
20
1
30
0
40
25
  1
LFT BDR STEEL
50
0
72
  1
11
200
21
-50
31
0.00
73
  0
  0
TEXT
  8
TEXT
  7
ROMANS
  41
0.75
62
  7
10
1
20
1
30
0
40
25
  1
(LFT BDR CONF)
50
0
72
  1
11
200
21
-100
31
0.00
73
  0
  0
TEXT
  8
TEXT
  7
ROMANS
  41
0.75
62
  40
10
1
20
1
30
0
40
25
  1
400
50
0
72
  1
11
200
21
462.5
31
0.00
73
  0
  0
POLYLINE
  8
0

62
  40
66
   1
10
0
20
0
30
0
70
0
  0
VERTEX
  8
0
10
2676.1776695296635
20
255.1091270347399
30
0.00
42
0
  0
VERTEX
  8
0
10
2647.893398282202
20
283.3933982822018
30
0.00
42
-0.6681786379192989
  0
VERTEX
  8
0
10
2656
20
306.5
30
0.00
42
0
  0
VERTEX
  8
0
10
2944
20
306.5
30
0.00
42
-0.41421356237309503
  0
VERTEX
  8
0
10
2956.5
20
294
30
0.00
42
0
  0
VERTEX
  8
0
10
2956.5
20
56
30
0.00
42
-0.41421356237309503
  0
VERTEX
  8
0
10
2944
20
43.5
30
0.00
42
0
  0
VERTEX
  8
0
10
2656
20
43.5
30
0.00
42
-0.41421356237309503
  0
VERTEX
  8
0
10
2643.5
20
56
30
0.00
42
0
  0
VERTEX
  8
0
10
2643.5
20
294
30
0.00
42
-0.6681786379192989
  0
VERTEX
  8
0
10
2666.606601717798
20
302.1066017177982
30
0.00
42
0
  0
VERTEX
  8
0
10
2694.8908729652603
20
273.8223304703363
30
0.00
42
0
  0
SEQEND
  8
0
  0
LINE
  8
0

62
  40
10
244
20
281.5
30
0.00
11
2756
21
281.5
31
0.00
  0
LINE
  8
0

62
  40
10
244
20
68.5
30
0.00
11
2756
21
68.5
31
0.00
  0
TEXT
  8
TEXT
  7
ROMANS
  41
0.75
62
  7
10
1
20
1
30
0
40
25
  1
SHEAR STEEL
50
0
72
  1
11
1500
21
375
31
0.00
73
  0
  0
TEXT
  8
TEXT
  7
ROMANS
  41
0.75
62
  7
10
1
20
1
30
0
40
12.5
  1
(EXTEND HORIZONTAL BARS FOR 'Ld')
50
0
72
  1
11
1500
21
410
31
0.00
73
  0
  0
TEXT
  8
TEXT
  7
ROMANS
  41
0.75
62
  40
10
1
20
1
30
0
40
25
  1
2200
50
0
72
  1
11
1500
21
462.5
31
0.00
73
  0
  0
TEXT
  8
TEXT
  7
ROMANS
  41
0.75
62
  7
10
1
20
1
30
0
40
25
  1
RIGHT BDR STEEL
50
0
72
  1
11
2800
21
-50
31
0.00
73
  0
  0
TEXT
  8
TEXT
  7
ROMANS
  41
0.75
62
  7
10
1
20
1
30
0
40
25
  1
(RIGHT BDR CONF)
50
0
72
  1
11
2800
21
-100
31
0.00
73
  0
  0
TEXT
  8
TEXT
  7
ROMANS
  41
0.75
62
  40
10
1
20
1
30
0
40
25
  1
400
50
0
72
  1
11
2800
21
462.5
31
0.00
73
  0
  0
TEXT
  8
TEXT
  7
ROMANS
  41
undefined
62
  undefined
10
1
20
1
30
0
40
undefined
  1
undefined
50
undefined
72
  1
11
0.75
21
undefined
31
0.00
73
  0
  0
TEXT
  8
TEXT
  7
ROMANS
  41
0.75
62
  40
10
1
20
1
30
0
40
25
  1
350
50
90
72
  1
11
-112.5
21
175
31
0.00
73
  0
  0
TEXT
  8
TEXT
  7
ROMANT
  41
0.85
62
  22
10
1
20
1
30
0
40
37.5
  1
LWS BELOW OFF 10 LVL
72
  1
11
1500
21
-187.5
31
0.00
73
  0
  0
TEXT
  8
TEXT
  7
ROMANT
  41
0.85
62
  22
10
1
20
1
30
0
40
37.5
  1
(3000 X 350)
72
  1
11
1500
21
-250
31
0.00
73
  0
  0
TEXT
  8
TEXT
  7
ROMANT
  41
0.85
62
  22
10
1
20
1
30
0
40
37.5
  1
M60
72
  1
11
1500
21
-312.5
31
0.00
73
  0
  0
POLYLINE
  8
0

62
  8
66
   1
10
0
20
0
30
0
40
60
41
60
70
1
  0
VERTEX
  8
0
10
147.9375
20
56
30
0.00
42
1
  0
VERTEX
  8
0
10
156.0625
20
56
30
0.00
42
1
  0
SEQEND
  8
0
  0
CIRCLE
  8
0

62
    40
10
152
20
56
30
 0
40
8.125
  0
POLYLINE
  8
0

62
  8
66
   1
10
0
20
0
30
0
40
60
41
60
70
1
  0
VERTEX
  8
0
10
147.9375
20
294
30
0.00
42
1
  0
VERTEX
  8
0
10
156.0625
20
294
30
0.00
42
1
  0
SEQEND
  8
0
  0
CIRCLE
  8
0

62
    40
10
152
20
294
30
 0
40
8.125
  0
POLYLINE
  8
0

62
  40
66
   1
10
0
20
0
30
0
70
0
  0
VERTEX
  8
0
10
76.17766952966369
20
255.1091270347399
30
0.00
42
0
  0
VERTEX
  8
0
10
47.89339828220179
20
283.3933982822018
30
0.00
42
-0.6681786379192989
  0
VERTEX
  8
0
10
56
20
306.5
30
0.00
42
0
  0
VERTEX
  8
0
10
344
20
306.5
30
0.00
42
-0.41421356237309503
  0
VERTEX
  8
0
10
356.5
20
294
30
0.00
42
0
  0
VERTEX
  8
0
10
356.5
20
56
30
0.00
42
-0.41421356237309503
  0
VERTEX
  8
0
10
344
20
43.5
30
0.00
42
0
  0
VERTEX
  8
0
10
56
20
43.5
30
0.00
42
-0.41421356237309503
  0
VERTEX
  8
0
10
43.5
20
56
30
0.00
42
0
  0
VERTEX
  8
0
10
43.5
20
294
30
0.00
42
-0.6681786379192989
  0
VERTEX
  8
0
10
66.60660171779821
20
302.1066017177982
30
0.00
42
0
  0
VERTEX
  8
0
10
94.89087296526012
20
273.8223304703363
30
0.00
42
0
  0
SEQEND
  8
0
  0
TEXT
  8
TEXT
  7
ROMANS
  41
0.75
62
  7
10
1
20
1
30
0
40
25
  1
LFT BDR STEEL
50
0
72
  1
11
200
21
-50
31
0.00
73
  0
  0
TEXT
  8
TEXT
  7
ROMANS
  41
0.75
62
  7
10
1
20
1
30
0
40
25
  1
(LFT BDR CONF)
50
0
72
  1
11
200
21
-100
31
0.00
73
  0
  0
TEXT
  8
TEXT
  7
ROMANS
  41
0.75
62
  40
10
1
20
1
30
0
40
25
  1
400
50
0
72
  1
11
200
21
462.5
31
0.00
73
  0
  0
POLYLINE
  8
0

62
  40
66
   1
10
0
20
0
30
0
70
0
  0
VERTEX
  8
0
10
2676.1776695296635
20
255.1091270347399
30
0.00
42
0
  0
VERTEX
  8
0
10
2647.893398282202
20
283.3933982822018
30
0.00
42
-0.6681786379192989
  0
VERTEX
  8
0
10
2656
20
306.5
30
0.00
42
0
  0
VERTEX
  8
0
10
2944
20
306.5
30
0.00
42
-0.41421356237309503
  0
VERTEX
  8
0
10
2956.5
20
294
30
0.00
42
0
  0
VERTEX
  8
0
10
2956.5
20
56
30
0.00
42
-0.41421356237309503
  0
VERTEX
  8
0
10
2944
20
43.5
30
0.00
42
0
  0
VERTEX
  8
0
10
2656
20
43.5
30
0.00
42
-0.41421356237309503
  0
VERTEX
  8
0
10
2643.5
20
56
30
0.00
42
0
  0
VERTEX
  8
0
10
2643.5
20
294
30
0.00
42
-0.6681786379192989
  0
VERTEX
  8
0
10
2666.606601717798
20
302.1066017177982
30
0.00
42
0
  0
VERTEX
  8
0
10
2694.8908729652603
20
273.8223304703363
30
0.00
42
0
  0
SEQEND
  8
0
  0
LINE
  8
0

62
  40
10
244
20
281.5
30
0.00
11
2756
21
281.5
31
0.00
  0
LINE
  8
0

62
  40
10
244
20
68.5
30
0.00
11
2756
21
68.5
31
0.00
  0
TEXT
  8
TEXT
  7
ROMANS
  41
0.75
62
  7
10
1
20
1
30
0
40
25
  1
SHEAR STEEL
50
0
72
  1
11
1500
21
375
31
0.00
73
  0
  0
TEXT
  8
TEXT
  7
ROMANS
  41
0.75
62
  7
10
1
20
1
30
0
40
12.5
  1
(EXTEND HORIZONTAL BARS FOR 'Ld')
50
0
72
  1
11
1500
21
410
31
0.00
73
  0
  0
TEXT
  8
TEXT
  7
ROMANS
  41
0.75
62
  40
10
1
20
1
30
0
40
25
  1
2200
50
0
72
  1
11
1500
21
462.5
31
0.00
73
  0
  0
TEXT
  8
TEXT
  7
ROMANS
  41
0.75
62
  7
10
1
20
1
30
0
40
25
  1
RIGHT BDR STEEL
50
0
72
  1
11
2800
21
-50
31
0.00
73
  0
  0
TEXT
  8
TEXT
  7
ROMANS
  41
0.75
62
  7
10
1
20
1
30
0
40
25
  1
(RIGHT BDR CONF)
50
0
72
  1
11
2800
21
-100
31
0.00
73
  0
  0
TEXT
  8
TEXT
  7
ROMANS
  41
0.75
62
  40
10
1
20
1
30
0
40
25
  1
400
50
0
72
  1
11
2800
21
462.5
31
0.00
73
  0
  0
TEXT
  8
TEXT
  7
ROMANS
  41
undefined
62
  undefined
10
1
20
1
30
0
40
undefined
  1
undefined
50
undefined
72
  1
11
0.75
21
undefined
31
0.00
73
  0
  0
TEXT
  8
TEXT
  7
ROMANS
  41
0.75
62
  40
10
1
20
1
30
0
40
25
  1
350
50
90
72
  1
11
-112.5
21
175
31
0.00
73
  0
  0
TEXT
  8
TEXT
  7
ROMANT
  41
0.85
62
  22
10
1
20
1
30
0
40
37.5
  1
LWS BELOW OFF 10 LVL
72
  1
11
1500
21
-187.5
31
0.00
73
  0
  0
TEXT
  8
TEXT
  7
ROMANT
  41
0.85
62
  22
10
1
20
1
30
0
40
37.5
  1
(3000 X 350)
72
  1
11
1500
21
-250
31
0.00
73
  0
  0
TEXT
  8
TEXT
  7
ROMANT
  41
0.85
62
  22
10
1
20
1
30
0
40
37.5
  1
M60
72
  1
11
1500
21
-312.5
31
0.00
73
  0
  0
POLYLINE
  8
0

62
  8
66
   1
10
0
20
0
30
0
40
60
41
60
70
1
  0
VERTEX
  8
0
10
243.9375
20
56
30
0.00
42
1
  0
VERTEX
  8
0
10
252.0625
20
56
30
0.00
42
1
  0
SEQEND
  8
0
  0
CIRCLE
  8
0

62
    40
10
248
20
56
30
 0
40
8.125
  0
POLYLINE
  8
0

62
  8
66
   1
10
0
20
0
30
0
40
60
41
60
70
1
  0
VERTEX
  8
0
10
243.9375
20
294
30
0.00
42
1
  0
VERTEX
  8
0
10
252.0625
20
294
30
0.00
42
1
  0
SEQEND
  8
0
  0
CIRCLE
  8
0

62
    40
10
248
20
294
30
 0
40
8.125
  0
POLYLINE
  8
0

62
  40
66
   1
10
0
20
0
30
0
70
0
  0
VERTEX
  8
0
10
76.17766952966369
20
255.1091270347399
30
0.00
42
0
  0
VERTEX
  8
0
10
47.89339828220179
20
283.3933982822018
30
0.00
42
-0.6681786379192989
  0
VERTEX
  8
0
10
56
20
306.5
30
0.00
42
0
  0
VERTEX
  8
0
10
344
20
306.5
30
0.00
42
-0.41421356237309503
  0
VERTEX
  8
0
10
356.5
20
294
30
0.00
42
0
  0
VERTEX
  8
0
10
356.5
20
56
30
0.00
42
-0.41421356237309503
  0
VERTEX
  8
0
10
344
20
43.5
30
0.00
42
0
  0
VERTEX
  8
0
10
56
20
43.5
30
0.00
42
-0.41421356237309503
  0
VERTEX
  8
0
10
43.5
20
56
30
0.00
42
0
  0
VERTEX
  8
0
10
43.5
20
294
30
0.00
42
-0.6681786379192989
  0
VERTEX
  8
0
10
66.60660171779821
20
302.1066017177982
30
0.00
42
0
  0
VERTEX
  8
0
10
94.89087296526012
20
273.8223304703363
30
0.00
42
0
  0
SEQEND
  8
0
  0
TEXT
  8
TEXT
  7
ROMANS
  41
0.75
62
  7
10
1
20
1
30
0
40
25
  1
LFT BDR STEEL
50
0
72
  1
11
200
21
-50
31
0.00
73
  0
  0
TEXT
  8
TEXT
  7
ROMANS
  41
0.75
62
  7
10
1
20
1
30
0
40
25
  1
(LFT BDR CONF)
50
0
72
  1
11
200
21
-100
31
0.00
73
  0
  0
TEXT
  8
TEXT
  7
ROMANS
  41
0.75
62
  40
10
1
20
1
30
0
40
25
  1
400
50
0
72
  1
11
200
21
462.5
31
0.00
73
  0
  0
POLYLINE
  8
0

62
  40
66
   1
10
0
20
0
30
0
70
0
  0
VERTEX
  8
0
10
2676.1776695296635
20
255.1091270347399
30
0.00
42
0
  0
VERTEX
  8
0
10
2647.893398282202
20
283.3933982822018
30
0.00
42
-0.6681786379192989
  0
VERTEX
  8
0
10
2656
20
306.5
30
0.00
42
0
  0
VERTEX
  8
0
10
2944
20
306.5
30
0.00
42
-0.41421356237309503
  0
VERTEX
  8
0
10
2956.5
20
294
30
0.00
42
0
  0
VERTEX
  8
0
10
2956.5
20
56
30
0.00
42
-0.41421356237309503
  0
VERTEX
  8
0
10
2944
20
43.5
30
0.00
42
0
  0
VERTEX
  8
0
10
2656
20
43.5
30
0.00
42
-0.41421356237309503
  0
VERTEX
  8
0
10
2643.5
20
56
30
0.00
42
0
  0
VERTEX
  8
0
10
2643.5
20
294
30
0.00
42
-0.6681786379192989
  0
VERTEX
  8
0
10
2666.606601717798
20
302.1066017177982
30
0.00
42
0
  0
VERTEX
  8
0
10
2694.8908729652603
20
273.8223304703363
30
0.00
42
0
  0
SEQEND
  8
0
  0
LINE
  8
0

62
  40
10
244
20
281.5
30
0.00
11
2756
21
281.5
31
0.00
  0
LINE
  8
0

62
  40
10
244
20
68.5
30
0.00
11
2756
21
68.5
31
0.00
  0
TEXT
  8
TEXT
  7
ROMANS
  41
0.75
62
  7
10
1
20
1
30
0
40
25
  1
SHEAR STEEL
50
0
72
  1
11
1500
21
375
31
0.00
73
  0
  0
TEXT
  8
TEXT
  7
ROMANS
  41
0.75
62
  7
10
1
20
1
30
0
40
12.5
  1
(EXTEND HORIZONTAL BARS FOR 'Ld')
50
0
72
  1
11
1500
21
410
31
0.00
73
  0
  0
TEXT
  8
TEXT
  7
ROMANS
  41
0.75
62
  40
10
1
20
1
30
0
40
25
  1
2200
50
0
72
  1
11
1500
21
462.5
31
0.00
73
  0
  0
TEXT
  8
TEXT
  7
ROMANS
  41
0.75
62
  7
10
1
20
1
30
0
40
25
  1
RIGHT BDR STEEL
50
0
72
  1
11
2800
21
-50
31
0.00
73
  0
  0
TEXT
  8
TEXT
  7
ROMANS
  41
0.75
62
  7
10
1
20
1
30
0
40
25
  1
(RIGHT BDR CONF)
50
0
72
  1
11
2800
21
-100
31
0.00
73
  0
  0
TEXT
  8
TEXT
  7
ROMANS
  41
0.75
62
  40
10
1
20
1
30
0
40
25
  1
400
50
0
72
  1
11
2800
21
462.5
31
0.00
73
  0
  0
TEXT
  8
TEXT
  7
ROMANS
  41
undefined
62
  undefined
10
1
20
1
30
0
40
undefined
  1
undefined
50
undefined
72
  1
11
0.75
21
undefined
31
0.00
73
  0
  0
TEXT
  8
TEXT
  7
ROMANS
  41
0.75
62
  40
10
1
20
1
30
0
40
25
  1
350
50
90
72
  1
11
-112.5
21
175
31
0.00
73
  0
  0
TEXT
  8
TEXT
  7
ROMANT
  41
0.85
62
  22
10
1
20
1
30
0
40
37.5
  1
LWS BELOW OFF 10 LVL
72
  1
11
1500
21
-187.5
31
0.00
73
  0
  0
TEXT
  8
TEXT
  7
ROMANT
  41
0.85
62
  22
10
1
20
1
30
0
40
37.5
  1
(3000 X 350)
72
  1
11
1500
21
-250
31
0.00
73
  0
  0
TEXT
  8
TEXT
  7
ROMANT
  41
0.85
62
  22
10
1
20
1
30
0
40
37.5
  1
M60
72
  1
11
1500
21
-312.5
31
0.00
73
  0
  0
POLYLINE
  8
0

62
  8
66
   1
10
0
20
0
30
0
40
60
41
60
70
1
  0
VERTEX
  8
0
10
339.9375
20
56
30
0.00
42
1
  0
VERTEX
  8
0
10
348.0625
20
56
30
0.00
42
1
  0
SEQEND
  8
0
  0
CIRCLE
  8
0

62
    40
10
344
20
56
30
 0
40
8.125
  0
POLYLINE
  8
0

62
  8
66
   1
10
0
20
0
30
0
40
60
41
60
70
1
  0
VERTEX
  8
0
10
339.9375
20
294
30
0.00
42
1
  0
VERTEX
  8
0
10
348.0625
20
294
30
0.00
42
1
  0
SEQEND
  8
0
  0
CIRCLE
  8
0

62
    40
10
344
20
294
30
 0
40
8.125
  0
POLYLINE
  8
0

62
  8
66
   1
10
0
20
0
30
0
40
60
41
60
70
1
  0
VERTEX
  8
0
10
339.9375
20
175
30
0.00
42
1
  0
VERTEX
  8
0
10
348.0625
20
175
30
0.00
42
1
  0
SEQEND
  8
0
  0
CIRCLE
  8
0

62
    40
10
344
20
175
30
 0
40
8.125
  0
POLYLINE
  8
0

62
  40
66
   1
10
0
20
0
30
0
70
0
  0
VERTEX
  8
0
10
76.17766952966369
20
255.1091270347399
30
0.00
42
0
  0
VERTEX
  8
0
10
47.89339828220179
20
283.3933982822018
30
0.00
42
-0.6681786379192989
  0
VERTEX
  8
0
10
56
20
306.5
30
0.00
42
0
  0
VERTEX
  8
0
10
344
20
306.5
30
0.00
42
-0.41421356237309503
  0
VERTEX
  8
0
10
356.5
20
294
30
0.00
42
0
  0
VERTEX
  8
0
10
356.5
20
56
30
0.00
42
-0.41421356237309503
  0
VERTEX
  8
0
10
344
20
43.5
30
0.00
42
0
  0
VERTEX
  8
0
10
56
20
43.5
30
0.00
42
-0.41421356237309503
  0
VERTEX
  8
0
10
43.5
20
56
30
0.00
42
0
  0
VERTEX
  8
0
10
43.5
20
294
30
0.00
42
-0.6681786379192989
  0
VERTEX
  8
0
10
66.60660171779821
20
302.1066017177982
30
0.00
42
0
  0
VERTEX
  8
0
10
94.89087296526012
20
273.8223304703363
30
0.00
42
0
  0
SEQEND
  8
0
  0
TEXT
  8
TEXT
  7
ROMANS
  41
0.75
62
  7
10
1
20
1
30
0
40
25
  1
LFT BDR STEEL
50
0
72
  1
11
200
21
-50
31
0.00
73
  0
  0
TEXT
  8
TEXT
  7
ROMANS
  41
0.75
62
  7
10
1
20
1
30
0
40
25
  1
(LFT BDR CONF)
50
0
72
  1
11
200
21
-100
31
0.00
73
  0
  0
TEXT
  8
TEXT
  7
ROMANS
  41
0.75
62
  40
10
1
20
1
30
0
40
25
  1
400
50
0
72
  1
11
200
21
462.5
31
0.00
73
  0
  0
POLYLINE
  8
0

62
  40
66
   1
10
0
20
0
30
0
70
0
  0
VERTEX
  8
0
10
2676.1776695296635
20
255.1091270347399
30
0.00
42
0
  0
VERTEX
  8
0
10
2647.893398282202
20
283.3933982822018
30
0.00
42
-0.6681786379192989
  0
VERTEX
  8
0
10
2656
20
306.5
30
0.00
42
0
  0
VERTEX
  8
0
10
2944
20
306.5
30
0.00
42
-0.41421356237309503
  0
VERTEX
  8
0
10
2956.5
20
294
30
0.00
42
0
  0
VERTEX
  8
0
10
2956.5
20
56
30
0.00
42
-0.41421356237309503
  0
VERTEX
  8
0
10
2944
20
43.5
30
0.00
42
0
  0
VERTEX
  8
0
10
2656
20
43.5
30
0.00
42
-0.41421356237309503
  0
VERTEX
  8
0
10
2643.5
20
56
30
0.00
42
0
  0
VERTEX
  8
0
10
2643.5
20
294
30
0.00
42
-0.6681786379192989
  0
VERTEX
  8
0
10
2666.606601717798
20
302.1066017177982
30
0.00
42
0
  0
VERTEX
  8
0
10
2694.8908729652603
20
273.8223304703363
30
0.00
42
0
  0
SEQEND
  8
0
  0
LINE
  8
0

62
  40
10
244
20
281.5
30
0.00
11
2756
21
281.5
31
0.00
  0
LINE
  8
0

62
  40
10
244
20
68.5
30
0.00
11
2756
21
68.5
31
0.00
  0
TEXT
  8
TEXT
  7
ROMANS
  41
0.75
62
  7
10
1
20
1
30
0
40
25
  1
SHEAR STEEL
50
0
72
  1
11
1500
21
375
31
0.00
73
  0
  0
TEXT
  8
TEXT
  7
ROMANS
  41
0.75
62
  7
10
1
20
1
30
0
40
12.5
  1
(EXTEND HORIZONTAL BARS FOR 'Ld')
50
0
72
  1
11
1500
21
410
31
0.00
73
  0
  0
TEXT
  8
TEXT
  7
ROMANS
  41
0.75
62
  40
10
1
20
1
30
0
40
25
  1
2200
50
0
72
  1
11
1500
21
462.5
31
0.00
73
  0
  0
TEXT
  8
TEXT
  7
ROMANS
  41
0.75
62
  7
10
1
20
1
30
0
40
25
  1
RIGHT BDR STEEL
50
0
72
  1
11
2800
21
-50
31
0.00
73
  0
  0
TEXT
  8
TEXT
  7
ROMANS
  41
0.75
62
  7
10
1
20
1
30
0
40
25
  1
(RIGHT BDR CONF)
50
0
72
  1
11
2800
21
-100
31
0.00
73
  0
  0
TEXT
  8
TEXT
  7
ROMANS
  41
0.75
62
  40
10
1
20
1
30
0
40
25
  1
400
50
0
72
  1
11
2800
21
462.5
31
0.00
73
  0
  0
TEXT
  8
TEXT
  7
ROMANS
  41
undefined
62
  undefined
10
1
20
1
30
0
40
undefined
  1
undefined
50
undefined
72
  1
11
0.75
21
undefined
31
0.00
73
  0
  0
TEXT
  8
TEXT
  7
ROMANS
  41
0.75
62
  40
10
1
20
1
30
0
40
25
  1
350
50
90
72
  1
11
-112.5
21
175
31
0.00
73
  0
  0
TEXT
  8
TEXT
  7
ROMANT
  41
0.85
62
  22
10
1
20
1
30
0
40
37.5
  1
LWS BELOW OFF 10 LVL
72
  1
11
1500
21
-187.5
31
0.00
73
  0
  0
TEXT
  8
TEXT
  7
ROMANT
  41
0.85
62
  22
10
1
20
1
30
0
40
37.5
  1
(3000 X 350)
72
  1
11
1500
21
-250
31
0.00
73
  0
  0
TEXT
  8
TEXT
  7
ROMANT
  41
0.85
62
  22
10
1
20
1
30
0
40
37.5
  1
M60
72
  1
11
1500
21
-312.5
31
0.00
73
  0
  0
POLYLINE
  8
0

62
  8
66
   1
10
0
20
0
30
0
40
60
41
60
70
1
  0
VERTEX
  8
0
10
571.1375
20
56
30
0.00
42
1
  0
VERTEX
  8
0
10
579.2625
20
56
30
0.00
42
1
  0
SEQEND
  8
0
  0
CIRCLE
  8
0

62
    40
10
575.2
20
56
30
 0
40
8.125
  0
POLYLINE
  8
0

62
  8
66
   1
10
0
20
0
30
0
40
60
41
60
70
1
  0
VERTEX
  8
0
10
571.1375
20
294
30
0.00
42
1
  0
VERTEX
  8
0
10
579.2625
20
294
30
0.00
42
1
  0
SEQEND
  8
0
  0
CIRCLE
  8
0

62
    40
10
575.2
20
294
30
 0
40
8.125
  0
POLYLINE
  8
0

62
  40
66
   1
10
0
20
0
30
0
70
0
  0
VERTEX
  8
0
10
76.17766952966369
20
255.1091270347399
30
0.00
42
0
  0
VERTEX
  8
0
10
47.89339828220179
20
283.3933982822018
30
0.00
42
-0.6681786379192989
  0
VERTEX
  8
0
10
56
20
306.5
30
0.00
42
0
  0
VERTEX
  8
0
10
344
20
306.5
30
0.00
42
-0.41421356237309503
  0
VERTEX
  8
0
10
356.5
20
294
30
0.00
42
0
  0
VERTEX
  8
0
10
356.5
20
56
30
0.00
42
-0.41421356237309503
  0
VERTEX
  8
0
10
344
20
43.5
30
0.00
42
0
  0
VERTEX
  8
0
10
56
20
43.5
30
0.00
42
-0.41421356237309503
  0
VERTEX
  8
0
10
43.5
20
56
30
0.00
42
0
  0
VERTEX
  8
0
10
43.5
20
294
30
0.00
42
-0.6681786379192989
  0
VERTEX
  8
0
10
66.60660171779821
20
302.1066017177982
30
0.00
42
0
  0
VERTEX
  8
0
10
94.89087296526012
20
273.8223304703363
30
0.00
42
0
  0
SEQEND
  8
0
  0
TEXT
  8
TEXT
  7
ROMANS
  41
0.75
62
  7
10
1
20
1
30
0
40
25
  1
LFT BDR STEEL
50
0
72
  1
11
200
21
-50
31
0.00
73
  0
  0
TEXT
  8
TEXT
  7
ROMANS
  41
0.75
62
  7
10
1
20
1
30
0
40
25
  1
(LFT BDR CONF)
50
0
72
  1
11
200
21
-100
31
0.00
73
  0
  0
TEXT
  8
TEXT
  7
ROMANS
  41
0.75
62
  40
10
1
20
1
30
0
40
25
  1
400
50
0
72
  1
11
200
21
462.5
31
0.00
73
  0
  0
POLYLINE
  8
0

62
  40
66
   1
10
0
20
0
30
0
70
0
  0
VERTEX
  8
0
10
2676.1776695296635
20
255.1091270347399
30
0.00
42
0
  0
VERTEX
  8
0
10
2647.893398282202
20
283.3933982822018
30
0.00
42
-0.6681786379192989
  0
VERTEX
  8
0
10
2656
20
306.5
30
0.00
42
0
  0
VERTEX
  8
0
10
2944
20
306.5
30
0.00
42
-0.41421356237309503
  0
VERTEX
  8
0
10
2956.5
20
294
30
0.00
42
0
  0
VERTEX
  8
0
10
2956.5
20
56
30
0.00
42
-0.41421356237309503
  0
VERTEX
  8
0
10
2944
20
43.5
30
0.00
42
0
  0
VERTEX
  8
0
10
2656
20
43.5
30
0.00
42
-0.41421356237309503
  0
VERTEX
  8
0
10
2643.5
20
56
30
0.00
42
0
  0
VERTEX
  8
0
10
2643.5
20
294
30
0.00
42
-0.6681786379192989
  0
VERTEX
  8
0
10
2666.606601717798
20
302.1066017177982
30
0.00
42
0
  0
VERTEX
  8
0
10
2694.8908729652603
20
273.8223304703363
30
0.00
42
0
  0
SEQEND
  8
0
  0
LINE
  8
0

62
  40
10
244
20
281.5
30
0.00
11
2756
21
281.5
31
0.00
  0
LINE
  8
0

62
  40
10
244
20
68.5
30
0.00
11
2756
21
68.5
31
0.00
  0
TEXT
  8
TEXT
  7
ROMANS
  41
0.75
62
  7
10
1
20
1
30
0
40
25
  1
SHEAR STEEL
50
0
72
  1
11
1500
21
375
31
0.00
73
  0
  0
TEXT
  8
TEXT
  7
ROMANS
  41
0.75
62
  7
10
1
20
1
30
0
40
12.5
  1
(EXTEND HORIZONTAL BARS FOR 'Ld')
50
0
72
  1
11
1500
21
410
31
0.00
73
  0
  0
TEXT
  8
TEXT
  7
ROMANS
  41
0.75
62
  40
10
1
20
1
30
0
40
25
  1
2200
50
0
72
  1
11
1500
21
462.5
31
0.00
73
  0
  0
TEXT
  8
TEXT
  7
ROMANS
  41
0.75
62
  7
10
1
20
1
30
0
40
25
  1
RIGHT BDR STEEL
50
0
72
  1
11
2800
21
-50
31
0.00
73
  0
  0
TEXT
  8
TEXT
  7
ROMANS
  41
0.75
62
  7
10
1
20
1
30
0
40
25
  1
(RIGHT BDR CONF)
50
0
72
  1
11
2800
21
-100
31
0.00
73
  0
  0
TEXT
  8
TEXT
  7
ROMANS
  41
0.75
62
  40
10
1
20
1
30
0
40
25
  1
400
50
0
72
  1
11
2800
21
462.5
31
0.00
73
  0
  0
TEXT
  8
TEXT
  7
ROMANS
  41
undefined
62
  undefined
10
1
20
1
30
0
40
undefined
  1
undefined
50
undefined
72
  1
11
0.75
21
undefined
31
0.00
73
  0
  0
TEXT
  8
TEXT
  7
ROMANS
  41
0.75
62
  40
10
1
20
1
30
0
40
25
  1
350
50
90
72
  1
11
-112.5
21
175
31
0.00
73
  0
  0
TEXT
  8
TEXT
  7
ROMANT
  41
0.85
62
  22
10
1
20
1
30
0
40
37.5
  1
LWS BELOW OFF 10 LVL
72
  1
11
1500
21
-187.5
31
0.00
73
  0
  0
TEXT
  8
TEXT
  7
ROMANT
  41
0.85
62
  22
10
1
20
1
30
0
40
37.5
  1
(3000 X 350)
72
  1
11
1500
21
-250
31
0.00
73
  0
  0
TEXT
  8
TEXT
  7
ROMANT
  41
0.85
62
  22
10
1
20
1
30
0
40
37.5
  1
M60
72
  1
11
1500
21
-312.5
31
0.00
73
  0
  0
POLYLINE
  8
0

62
  8
66
   1
10
0
20
0
30
0
40
60
41
60
70
1
  0
VERTEX
  8
0
10
802.3375
20
56
30
0.00
42
1
  0
VERTEX
  8
0
10
810.4625
20
56
30
0.00
42
1
  0
SEQEND
  8
0
  0
CIRCLE
  8
0

62
    40
10
806.4
20
56
30
 0
40
8.125
  0
POLYLINE
  8
0

62
  8
66
   1
10
0
20
0
30
0
40
60
41
60
70
1
  0
VERTEX
  8
0
10
802.3375
20
294
30
0.00
42
1
  0
VERTEX
  8
0
10
810.4625
20
294
30
0.00
42
1
  0
SEQEND
  8
0
  0
CIRCLE
  8
0

62
    40
10
806.4
20
294
30
 0
40
8.125
  0
POLYLINE
  8
0

62
  40
66
   1
10
0
20
0
30
0
70
0
  0
VERTEX
  8
0
10
76.17766952966369
20
255.1091270347399
30
0.00
42
0
  0
VERTEX
  8
0
10
47.89339828220179
20
283.3933982822018
30
0.00
42
-0.6681786379192989
  0
VERTEX
  8
0
10
56
20
306.5
30
0.00
42
0
  0
VERTEX
  8
0
10
344
20
306.5
30
0.00
42
-0.41421356237309503
  0
VERTEX
  8
0
10
356.5
20
294
30
0.00
42
0
  0
VERTEX
  8
0
10
356.5
20
56
30
0.00
42
-0.41421356237309503
  0
VERTEX
  8
0
10
344
20
43.5
30
0.00
42
0
  0
VERTEX
  8
0
10
56
20
43.5
30
0.00
42
-0.41421356237309503
  0
VERTEX
  8
0
10
43.5
20
56
30
0.00
42
0
  0
VERTEX
  8
0
10
43.5
20
294
30
0.00
42
-0.6681786379192989
  0
VERTEX
  8
0
10
66.60660171779821
20
302.1066017177982
30
0.00
42
0
  0
VERTEX
  8
0
10
94.89087296526012
20
273.8223304703363
30
0.00
42
0
  0
SEQEND
  8
0
  0
TEXT
  8
TEXT
  7
ROMANS
  41
0.75
62
  7
10
1
20
1
30
0
40
25
  1
LFT BDR STEEL
50
0
72
  1
11
200
21
-50
31
0.00
73
  0
  0
TEXT
  8
TEXT
  7
ROMANS
  41
0.75
62
  7
10
1
20
1
30
0
40
25
  1
(LFT BDR CONF)
50
0
72
  1
11
200
21
-100
31
0.00
73
  0
  0
TEXT
  8
TEXT
  7
ROMANS
  41
0.75
62
  40
10
1
20
1
30
0
40
25
  1
400
50
0
72
  1
11
200
21
462.5
31
0.00
73
  0
  0
POLYLINE
  8
0

62
  40
66
   1
10
0
20
0
30
0
70
0
  0
VERTEX
  8
0
10
2676.1776695296635
20
255.1091270347399
30
0.00
42
0
  0
VERTEX
  8
0
10
2647.893398282202
20
283.3933982822018
30
0.00
42
-0.6681786379192989
  0
VERTEX
  8
0
10
2656
20
306.5
30
0.00
42
0
  0
VERTEX
  8
0
10
2944
20
306.5
30
0.00
42
-0.41421356237309503
  0
VERTEX
  8
0
10
2956.5
20
294
30
0.00
42
0
  0
VERTEX
  8
0
10
2956.5
20
56
30
0.00
42
-0.41421356237309503
  0
VERTEX
  8
0
10
2944
20
43.5
30
0.00
42
0
  0
VERTEX
  8
0
10
2656
20
43.5
30
0.00
42
-0.41421356237309503
  0
VERTEX
  8
0
10
2643.5
20
56
30
0.00
42
0
  0
VERTEX
  8
0
10
2643.5
20
294
30
0.00
42
-0.6681786379192989
  0
VERTEX
  8
0
10
2666.606601717798
20
302.1066017177982
30
0.00
42
0
  0
VERTEX
  8
0
10
2694.8908729652603
20
273.8223304703363
30
0.00
42
0
  0
SEQEND
  8
0
  0
LINE
  8
0

62
  40
10
244
20
281.5
30
0.00
11
2756
21
281.5
31
0.00
  0
LINE
  8
0

62
  40
10
244
20
68.5
30
0.00
11
2756
21
68.5
31
0.00
  0
TEXT
  8
TEXT
  7
ROMANS
  41
0.75
62
  7
10
1
20
1
30
0
40
25
  1
SHEAR STEEL
50
0
72
  1
11
1500
21
375
31
0.00
73
  0
  0
TEXT
  8
TEXT
  7
ROMANS
  41
0.75
62
  7
10
1
20
1
30
0
40
12.5
  1
(EXTEND HORIZONTAL BARS FOR 'Ld')
50
0
72
  1
11
1500
21
410
31
0.00
73
  0
  0
TEXT
  8
TEXT
  7
ROMANS
  41
0.75
62
  40
10
1
20
1
30
0
40
25
  1
2200
50
0
72
  1
11
1500
21
462.5
31
0.00
73
  0
  0
TEXT
  8
TEXT
  7
ROMANS
  41
0.75
62
  7
10
1
20
1
30
0
40
25
  1
RIGHT BDR STEEL
50
0
72
  1
11
2800
21
-50
31
0.00
73
  0
  0
TEXT
  8
TEXT
  7
ROMANS
  41
0.75
62
  7
10
1
20
1
30
0
40
25
  1
(RIGHT BDR CONF)
50
0
72
  1
11
2800
21
-100
31
0.00
73
  0
  0
TEXT
  8
TEXT
  7
ROMANS
  41
0.75
62
  40
10
1
20
1
30
0
40
25
  1
400
50
0
72
  1
11
2800
21
462.5
31
0.00
73
  0
  0
TEXT
  8
TEXT
  7
ROMANS
  41
undefined
62
  undefined
10
1
20
1
30
0
40
undefined
  1
undefined
50
undefined
72
  1
11
0.75
21
undefined
31
0.00
73
  0
  0
TEXT
  8
TEXT
  7
ROMANS
  41
0.75
62
  40
10
1
20
1
30
0
40
25
  1
350
50
90
72
  1
11
-112.5
21
175
31
0.00
73
  0
  0
TEXT
  8
TEXT
  7
ROMANT
  41
0.85
62
  22
10
1
20
1
30
0
40
37.5
  1
LWS BELOW OFF 10 LVL
72
  1
11
1500
21
-187.5
31
0.00
73
  0
  0
TEXT
  8
TEXT
  7
ROMANT
  41
0.85
62
  22
10
1
20
1
30
0
40
37.5
  1
(3000 X 350)
72
  1
11
1500
21
-250
31
0.00
73
  0
  0
TEXT
  8
TEXT
  7
ROMANT
  41
0.85
62
  22
10
1
20
1
30
0
40
37.5
  1
M60
72
  1
11
1500
21
-312.5
31
0.00
73
  0
  0
POLYLINE
  8
0

62
  8
66
   1
10
0
20
0
30
0
40
60
41
60
70
1
  0
VERTEX
  8
0
10
1033.5375
20
56
30
0.00
42
1
  0
VERTEX
  8
0
10
1041.6625
20
56
30
0.00
42
1
  0
SEQEND
  8
0
  0
CIRCLE
  8
0

62
    40
10
1037.6
20
56
30
 0
40
8.125
  0
POLYLINE
  8
0

62
  8
66
   1
10
0
20
0
30
0
40
60
41
60
70
1
  0
VERTEX
  8
0
10
1033.5375
20
294
30
0.00
42
1
  0
VERTEX
  8
0
10
1041.6625
20
294
30
0.00
42
1
  0
SEQEND
  8
0
  0
CIRCLE
  8
0

62
    40
10
1037.6
20
294
30
 0
40
8.125
  0
POLYLINE
  8
0

62
  40
66
   1
10
0
20
0
30
0
70
0
  0
VERTEX
  8
0
10
76.17766952966369
20
255.1091270347399
30
0.00
42
0
  0
VERTEX
  8
0
10
47.89339828220179
20
283.3933982822018
30
0.00
42
-0.6681786379192989
  0
VERTEX
  8
0
10
56
20
306.5
30
0.00
42
0
  0
VERTEX
  8
0
10
344
20
306.5
30
0.00
42
-0.41421356237309503
  0
VERTEX
  8
0
10
356.5
20
294
30
0.00
42
0
  0
VERTEX
  8
0
10
356.5
20
56
30
0.00
42
-0.41421356237309503
  0
VERTEX
  8
0
10
344
20
43.5
30
0.00
42
0
  0
VERTEX
  8
0
10
56
20
43.5
30
0.00
42
-0.41421356237309503
  0
VERTEX
  8
0
10
43.5
20
56
30
0.00
42
0
  0
VERTEX
  8
0
10
43.5
20
294
30
0.00
42
-0.6681786379192989
  0
VERTEX
  8
0
10
66.60660171779821
20
302.1066017177982
30
0.00
42
0
  0
VERTEX
  8
0
10
94.89087296526012
20
273.8223304703363
30
0.00
42
0
  0
SEQEND
  8
0
  0
TEXT
  8
TEXT
  7
ROMANS
  41
0.75
62
  7
10
1
20
1
30
0
40
25
  1
LFT BDR STEEL
50
0
72
  1
11
200
21
-50
31
0.00
73
  0
  0
TEXT
  8
TEXT
  7
ROMANS
  41
0.75
62
  7
10
1
20
1
30
0
40
25
  1
(LFT BDR CONF)
50
0
72
  1
11
200
21
-100
31
0.00
73
  0
  0
TEXT
  8
TEXT
  7
ROMANS
  41
0.75
62
  40
10
1
20
1
30
0
40
25
  1
400
50
0
72
  1
11
200
21
462.5
31
0.00
73
  0
  0
POLYLINE
  8
0

62
  40
66
   1
10
0
20
0
30
0
70
0
  0
VERTEX
  8
0
10
2676.1776695296635
20
255.1091270347399
30
0.00
42
0
  0
VERTEX
  8
0
10
2647.893398282202
20
283.3933982822018
30
0.00
42
-0.6681786379192989
  0
VERTEX
  8
0
10
2656
20
306.5
30
0.00
42
0
  0
VERTEX
  8
0
10
2944
20
306.5
30
0.00
42
-0.41421356237309503
  0
VERTEX
  8
0
10
2956.5
20
294
30
0.00
42
0
  0
VERTEX
  8
0
10
2956.5
20
56
30
0.00
42
-0.41421356237309503
  0
VERTEX
  8
0
10
2944
20
43.5
30
0.00
42
0
  0
VERTEX
  8
0
10
2656
20
43.5
30
0.00
42
-0.41421356237309503
  0
VERTEX
  8
0
10
2643.5
20
56
30
0.00
42
0
  0
VERTEX
  8
0
10
2643.5
20
294
30
0.00
42
-0.6681786379192989
  0
VERTEX
  8
0
10
2666.606601717798
20
302.1066017177982
30
0.00
42
0
  0
VERTEX
  8
0
10
2694.8908729652603
20
273.8223304703363
30
0.00
42
0
  0
SEQEND
  8
0
  0
LINE
  8
0

62
  40
10
244
20
281.5
30
0.00
11
2756
21
281.5
31
0.00
  0
LINE
  8
0

62
  40
10
244
20
68.5
30
0.00
11
2756
21
68.5
31
0.00
  0
TEXT
  8
TEXT
  7
ROMANS
  41
0.75
62
  7
10
1
20
1
30
0
40
25
  1
SHEAR STEEL
50
0
72
  1
11
1500
21
375
31
0.00
73
  0
  0
TEXT
  8
TEXT
  7
ROMANS
  41
0.75
62
  7
10
1
20
1
30
0
40
12.5
  1
(EXTEND HORIZONTAL BARS FOR 'Ld')
50
0
72
  1
11
1500
21
410
31
0.00
73
  0
  0
TEXT
  8
TEXT
  7
ROMANS
  41
0.75
62
  40
10
1
20
1
30
0
40
25
  1
2200
50
0
72
  1
11
1500
21
462.5
31
0.00
73
  0
  0
TEXT
  8
TEXT
  7
ROMANS
  41
0.75
62
  7
10
1
20
1
30
0
40
25
  1
RIGHT BDR STEEL
50
0
72
  1
11
2800
21
-50
31
0.00
73
  0
  0
TEXT
  8
TEXT
  7
ROMANS
  41
0.75
62
  7
10
1
20
1
30
0
40
25
  1
(RIGHT BDR CONF)
50
0
72
  1
11
2800
21
-100
31
0.00
73
  0
  0
TEXT
  8
TEXT
  7
ROMANS
  41
0.75
62
  40
10
1
20
1
30
0
40
25
  1
400
50
0
72
  1
11
2800
21
462.5
31
0.00
73
  0
  0
TEXT
  8
TEXT
  7
ROMANS
  41
undefined
62
  undefined
10
1
20
1
30
0
40
undefined
  1
undefined
50
undefined
72
  1
11
0.75
21
undefined
31
0.00
73
  0
  0
TEXT
  8
TEXT
  7
ROMANS
  41
0.75
62
  40
10
1
20
1
30
0
40
25
  1
350
50
90
72
  1
11
-112.5
21
175
31
0.00
73
  0
  0
TEXT
  8
TEXT
  7
ROMANT
  41
0.85
62
  22
10
1
20
1
30
0
40
37.5
  1
LWS BELOW OFF 10 LVL
72
  1
11
1500
21
-187.5
31
0.00
73
  0
  0
TEXT
  8
TEXT
  7
ROMANT
  41
0.85
62
  22
10
1
20
1
30
0
40
37.5
  1
(3000 X 350)
72
  1
11
1500
21
-250
31
0.00
73
  0
  0
TEXT
  8
TEXT
  7
ROMANT
  41
0.85
62
  22
10
1
20
1
30
0
40
37.5
  1
M60
72
  1
11
1500
21
-312.5
31
0.00
73
  0
  0
POLYLINE
  8
0

62
  8
66
   1
10
0
20
0
30
0
40
60
41
60
70
1
  0
VERTEX
  8
0
10
1264.7375
20
56
30
0.00
42
1
  0
VERTEX
  8
0
10
1272.8625
20
56
30
0.00
42
1
  0
SEQEND
  8
0
  0
CIRCLE
  8
0

62
    40
10
1268.8
20
56
30
 0
40
8.125
  0
POLYLINE
  8
0

62
  8
66
   1
10
0
20
0
30
0
40
60
41
60
70
1
  0
VERTEX
  8
0
10
1264.7375
20
294
30
0.00
42
1
  0
VERTEX
  8
0
10
1272.8625
20
294
30
0.00
42
1
  0
SEQEND
  8
0
  0
CIRCLE
  8
0

62
    40
10
1268.8
20
294
30
 0
40
8.125
  0
POLYLINE
  8
0

62
  40
66
   1
10
0
20
0
30
0
70
0
  0
VERTEX
  8
0
10
76.17766952966369
20
255.1091270347399
30
0.00
42
0
  0
VERTEX
  8
0
10
47.89339828220179
20
283.3933982822018
30
0.00
42
-0.6681786379192989
  0
VERTEX
  8
0
10
56
20
306.5
30
0.00
42
0
  0
VERTEX
  8
0
10
344
20
306.5
30
0.00
42
-0.41421356237309503
  0
VERTEX
  8
0
10
356.5
20
294
30
0.00
42
0
  0
VERTEX
  8
0
10
356.5
20
56
30
0.00
42
-0.41421356237309503
  0
VERTEX
  8
0
10
344
20
43.5
30
0.00
42
0
  0
VERTEX
  8
0
10
56
20
43.5
30
0.00
42
-0.41421356237309503
  0
VERTEX
  8
0
10
43.5
20
56
30
0.00
42
0
  0
VERTEX
  8
0
10
43.5
20
294
30
0.00
42
-0.6681786379192989
  0
VERTEX
  8
0
10
66.60660171779821
20
302.1066017177982
30
0.00
42
0
  0
VERTEX
  8
0
10
94.89087296526012
20
273.8223304703363
30
0.00
42
0
  0
SEQEND
  8
0
  0
TEXT
  8
TEXT
  7
ROMANS
  41
0.75
62
  7
10
1
20
1
30
0
40
25
  1
LFT BDR STEEL
50
0
72
  1
11
200
21
-50
31
0.00
73
  0
  0
TEXT
  8
TEXT
  7
ROMANS
  41
0.75
62
  7
10
1
20
1
30
0
40
25
  1
(LFT BDR CONF)
50
0
72
  1
11
200
21
-100
31
0.00
73
  0
  0
TEXT
  8
TEXT
  7
ROMANS
  41
0.75
62
  40
10
1
20
1
30
0
40
25
  1
400
50
0
72
  1
11
200
21
462.5
31
0.00
73
  0
  0
POLYLINE
  8
0

62
  40
66
   1
10
0
20
0
30
0
70
0
  0
VERTEX
  8
0
10
2676.1776695296635
20
255.1091270347399
30
0.00
42
0
  0
VERTEX
  8
0
10
2647.893398282202
20
283.3933982822018
30
0.00
42
-0.6681786379192989
  0
VERTEX
  8
0
10
2656
20
306.5
30
0.00
42
0
  0
VERTEX
  8
0
10
2944
20
306.5
30
0.00
42
-0.41421356237309503
  0
VERTEX
  8
0
10
2956.5
20
294
30
0.00
42
0
  0
VERTEX
  8
0
10
2956.5
20
56
30
0.00
42
-0.41421356237309503
  0
VERTEX
  8
0
10
2944
20
43.5
30
0.00
42
0
  0
VERTEX
  8
0
10
2656
20
43.5
30
0.00
42
-0.41421356237309503
  0
VERTEX
  8
0
10
2643.5
20
56
30
0.00
42
0
  0
VERTEX
  8
0
10
2643.5
20
294
30
0.00
42
-0.6681786379192989
  0
VERTEX
  8
0
10
2666.606601717798
20
302.1066017177982
30
0.00
42
0
  0
VERTEX
  8
0
10
2694.8908729652603
20
273.8223304703363
30
0.00
42
0
  0
SEQEND
  8
0
  0
LINE
  8
0

62
  40
10
244
20
281.5
30
0.00
11
2756
21
281.5
31
0.00
  0
LINE
  8
0

62
  40
10
244
20
68.5
30
0.00
11
2756
21
68.5
31
0.00
  0
TEXT
  8
TEXT
  7
ROMANS
  41
0.75
62
  7
10
1
20
1
30
0
40
25
  1
SHEAR STEEL
50
0
72
  1
11
1500
21
375
31
0.00
73
  0
  0
TEXT
  8
TEXT
  7
ROMANS
  41
0.75
62
  7
10
1
20
1
30
0
40
12.5
  1
(EXTEND HORIZONTAL BARS FOR 'Ld')
50
0
72
  1
11
1500
21
410
31
0.00
73
  0
  0
TEXT
  8
TEXT
  7
ROMANS
  41
0.75
62
  40
10
1
20
1
30
0
40
25
  1
2200
50
0
72
  1
11
1500
21
462.5
31
0.00
73
  0
  0
TEXT
  8
TEXT
  7
ROMANS
  41
0.75
62
  7
10
1
20
1
30
0
40
25
  1
RIGHT BDR STEEL
50
0
72
  1
11
2800
21
-50
31
0.00
73
  0
  0
TEXT
  8
TEXT
  7
ROMANS
  41
0.75
62
  7
10
1
20
1
30
0
40
25
  1
(RIGHT BDR CONF)
50
0
72
  1
11
2800
21
-100
31
0.00
73
  0
  0
TEXT
  8
TEXT
  7
ROMANS
  41
0.75
62
  40
10
1
20
1
30
0
40
25
  1
400
50
0
72
  1
11
2800
21
462.5
31
0.00
73
  0
  0
TEXT
  8
TEXT
  7
ROMANS
  41
undefined
62
  undefined
10
1
20
1
30
0
40
undefined
  1
undefined
50
undefined
72
  1
11
0.75
21
undefined
31
0.00
73
  0
  0
TEXT
  8
TEXT
  7
ROMANS
  41
0.75
62
  40
10
1
20
1
30
0
40
25
  1
350
50
90
72
  1
11
-112.5
21
175
31
0.00
73
  0
  0
TEXT
  8
TEXT
  7
ROMANT
  41
0.85
62
  22
10
1
20
1
30
0
40
37.5
  1
LWS BELOW OFF 10 LVL
72
  1
11
1500
21
-187.5
31
0.00
73
  0
  0
TEXT
  8
TEXT
  7
ROMANT
  41
0.85
62
  22
10
1
20
1
30
0
40
37.5
  1
(3000 X 350)
72
  1
11
1500
21
-250
31
0.00
73
  0
  0
TEXT
  8
TEXT
  7
ROMANT
  41
0.85
62
  22
10
1
20
1
30
0
40
37.5
  1
M60
72
  1
11
1500
21
-312.5
31
0.00
73
  0
  0
POLYLINE
  8
0

62
  8
66
   1
10
0
20
0
30
0
40
60
41
60
70
1
  0
VERTEX
  8
0
10
1495.9375
20
56
30
0.00
42
1
  0
VERTEX
  8
0
10
1504.0625
20
56
30
0.00
42
1
  0
SEQEND
  8
0
  0
CIRCLE
  8
0

62
    40
10
1500
20
56
30
 0
40
8.125
  0
POLYLINE
  8
0

62
  8
66
   1
10
0
20
0
30
0
40
60
41
60
70
1
  0
VERTEX
  8
0
10
1495.9375
20
294
30
0.00
42
1
  0
VERTEX
  8
0
10
1504.0625
20
294
30
0.00
42
1
  0
SEQEND
  8
0
  0
CIRCLE
  8
0

62
    40
10
1500
20
294
30
 0
40
8.125
  0
POLYLINE
  8
0

62
  40
66
   1
10
0
20
0
30
0
70
0
  0
VERTEX
  8
0
10
76.17766952966369
20
255.1091270347399
30
0.00
42
0
  0
VERTEX
  8
0
10
47.89339828220179
20
283.3933982822018
30
0.00
42
-0.6681786379192989
  0
VERTEX
  8
0
10
56
20
306.5
30
0.00
42
0
  0
VERTEX
  8
0
10
344
20
306.5
30
0.00
42
-0.41421356237309503
  0
VERTEX
  8
0
10
356.5
20
294
30
0.00
42
0
  0
VERTEX
  8
0
10
356.5
20
56
30
0.00
42
-0.41421356237309503
  0
VERTEX
  8
0
10
344
20
43.5
30
0.00
42
0
  0
VERTEX
  8
0
10
56
20
43.5
30
0.00
42
-0.41421356237309503
  0
VERTEX
  8
0
10
43.5
20
56
30
0.00
42
0
  0
VERTEX
  8
0
10
43.5
20
294
30
0.00
42
-0.6681786379192989
  0
VERTEX
  8
0
10
66.60660171779821
20
302.1066017177982
30
0.00
42
0
  0
VERTEX
  8
0
10
94.89087296526012
20
273.8223304703363
30
0.00
42
0
  0
SEQEND
  8
0
  0
TEXT
  8
TEXT
  7
ROMANS
  41
0.75
62
  7
10
1
20
1
30
0
40
25
  1
LFT BDR STEEL
50
0
72
  1
11
200
21
-50
31
0.00
73
  0
  0
TEXT
  8
TEXT
  7
ROMANS
  41
0.75
62
  7
10
1
20
1
30
0
40
25
  1
(LFT BDR CONF)
50
0
72
  1
11
200
21
-100
31
0.00
73
  0
  0
TEXT
  8
TEXT
  7
ROMANS
  41
0.75
62
  40
10
1
20
1
30
0
40
25
  1
400
50
0
72
  1
11
200
21
462.5
31
0.00
73
  0
  0
POLYLINE
  8
0

62
  40
66
   1
10
0
20
0
30
0
70
0
  0
VERTEX
  8
0
10
2676.1776695296635
20
255.1091270347399
30
0.00
42
0
  0
VERTEX
  8
0
10
2647.893398282202
20
283.3933982822018
30
0.00
42
-0.6681786379192989
  0
VERTEX
  8
0
10
2656
20
306.5
30
0.00
42
0
  0
VERTEX
  8
0
10
2944
20
306.5
30
0.00
42
-0.41421356237309503
  0
VERTEX
  8
0
10
2956.5
20
294
30
0.00
42
0
  0
VERTEX
  8
0
10
2956.5
20
56
30
0.00
42
-0.41421356237309503
  0
VERTEX
  8
0
10
2944
20
43.5
30
0.00
42
0
  0
VERTEX
  8
0
10
2656
20
43.5
30
0.00
42
-0.41421356237309503
  0
VERTEX
  8
0
10
2643.5
20
56
30
0.00
42
0
  0
VERTEX
  8
0
10
2643.5
20
294
30
0.00
42
-0.6681786379192989
  0
VERTEX
  8
0
10
2666.606601717798
20
302.1066017177982
30
0.00
42
0
  0
VERTEX
  8
0
10
2694.8908729652603
20
273.8223304703363
30
0.00
42
0
  0
SEQEND
  8
0
  0
LINE
  8
0

62
  40
10
244
20
281.5
30
0.00
11
2756
21
281.5
31
0.00
  0
LINE
  8
0

62
  40
10
244
20
68.5
30
0.00
11
2756
21
68.5
31
0.00
  0
TEXT
  8
TEXT
  7
ROMANS
  41
0.75
62
  7
10
1
20
1
30
0
40
25
  1
SHEAR STEEL
50
0
72
  1
11
1500
21
375
31
0.00
73
  0
  0
TEXT
  8
TEXT
  7
ROMANS
  41
0.75
62
  7
10
1
20
1
30
0
40
12.5
  1
(EXTEND HORIZONTAL BARS FOR 'Ld')
50
0
72
  1
11
1500
21
410
31
0.00
73
  0
  0
TEXT
  8
TEXT
  7
ROMANS
  41
0.75
62
  40
10
1
20
1
30
0
40
25
  1
2200
50
0
72
  1
11
1500
21
462.5
31
0.00
73
  0
  0
TEXT
  8
TEXT
  7
ROMANS
  41
0.75
62
  7
10
1
20
1
30
0
40
25
  1
RIGHT BDR STEEL
50
0
72
  1
11
2800
21
-50
31
0.00
73
  0
  0
TEXT
  8
TEXT
  7
ROMANS
  41
0.75
62
  7
10
1
20
1
30
0
40
25
  1
(RIGHT BDR CONF)
50
0
72
  1
11
2800
21
-100
31
0.00
73
  0
  0
TEXT
  8
TEXT
  7
ROMANS
  41
0.75
62
  40
10
1
20
1
30
0
40
25
  1
400
50
0
72
  1
11
2800
21
462.5
31
0.00
73
  0
  0
TEXT
  8
TEXT
  7
ROMANS
  41
undefined
62
  undefined
10
1
20
1
30
0
40
undefined
  1
undefined
50
undefined
72
  1
11
0.75
21
undefined
31
0.00
73
  0
  0
TEXT
  8
TEXT
  7
ROMANS
  41
0.75
62
  40
10
1
20
1
30
0
40
25
  1
350
50
90
72
  1
11
-112.5
21
175
31
0.00
73
  0
  0
TEXT
  8
TEXT
  7
ROMANT
  41
0.85
62
  22
10
1
20
1
30
0
40
37.5
  1
LWS BELOW OFF 10 LVL
72
  1
11
1500
21
-187.5
31
0.00
73
  0
  0
TEXT
  8
TEXT
  7
ROMANT
  41
0.85
62
  22
10
1
20
1
30
0
40
37.5
  1
(3000 X 350)
72
  1
11
1500
21
-250
31
0.00
73
  0
  0
TEXT
  8
TEXT
  7
ROMANT
  41
0.85
62
  22
10
1
20
1
30
0
40
37.5
  1
M60
72
  1
11
1500
21
-312.5
31
0.00
73
  0
  0
POLYLINE
  8
0

62
  8
66
   1
10
0
20
0
30
0
40
60
41
60
70
1
  0
VERTEX
  8
0
10
1727.1375
20
56
30
0.00
42
1
  0
VERTEX
  8
0
10
1735.2625
20
56
30
0.00
42
1
  0
SEQEND
  8
0
  0
CIRCLE
  8
0

62
    40
10
1731.2
20
56
30
 0
40
8.125
  0
POLYLINE
  8
0

62
  8
66
   1
10
0
20
0
30
0
40
60
41
60
70
1
  0
VERTEX
  8
0
10
1727.1375
20
294
30
0.00
42
1
  0
VERTEX
  8
0
10
1735.2625
20
294
30
0.00
42
1
  0
SEQEND
  8
0
  0
CIRCLE
  8
0

62
    40
10
1731.2
20
294
30
 0
40
8.125
  0
POLYLINE
  8
0

62
  40
66
   1
10
0
20
0
30
0
70
0
  0
VERTEX
  8
0
10
76.17766952966369
20
255.1091270347399
30
0.00
42
0
  0
VERTEX
  8
0
10
47.89339828220179
20
283.3933982822018
30
0.00
42
-0.6681786379192989
  0
VERTEX
  8
0
10
56
20
306.5
30
0.00
42
0
  0
VERTEX
  8
0
10
344
20
306.5
30
0.00
42
-0.41421356237309503
  0
VERTEX
  8
0
10
356.5
20
294
30
0.00
42
0
  0
VERTEX
  8
0
10
356.5
20
56
30
0.00
42
-0.41421356237309503
  0
VERTEX
  8
0
10
344
20
43.5
30
0.00
42
0
  0
VERTEX
  8
0
10
56
20
43.5
30
0.00
42
-0.41421356237309503
  0
VERTEX
  8
0
10
43.5
20
56
30
0.00
42
0
  0
VERTEX
  8
0
10
43.5
20
294
30
0.00
42
-0.6681786379192989
  0
VERTEX
  8
0
10
66.60660171779821
20
302.1066017177982
30
0.00
42
0
  0
VERTEX
  8
0
10
94.89087296526012
20
273.8223304703363
30
0.00
42
0
  0
SEQEND
  8
0
  0
TEXT
  8
TEXT
  7
ROMANS
  41
0.75
62
  7
10
1
20
1
30
0
40
25
  1
LFT BDR STEEL
50
0
72
  1
11
200
21
-50
31
0.00
73
  0
  0
TEXT
  8
TEXT
  7
ROMANS
  41
0.75
62
  7
10
1
20
1
30
0
40
25
  1
(LFT BDR CONF)
50
0
72
  1
11
200
21
-100
31
0.00
73
  0
  0
TEXT
  8
TEXT
  7
ROMANS
  41
0.75
62
  40
10
1
20
1
30
0
40
25
  1
400
50
0
72
  1
11
200
21
462.5
31
0.00
73
  0
  0
POLYLINE
  8
0

62
  40
66
   1
10
0
20
0
30
0
70
0
  0
VERTEX
  8
0
10
2676.1776695296635
20
255.1091270347399
30
0.00
42
0
  0
VERTEX
  8
0
10
2647.893398282202
20
283.3933982822018
30
0.00
42
-0.6681786379192989
  0
VERTEX
  8
0
10
2656
20
306.5
30
0.00
42
0
  0
VERTEX
  8
0
10
2944
20
306.5
30
0.00
42
-0.41421356237309503
  0
VERTEX
  8
0
10
2956.5
20
294
30
0.00
42
0
  0
VERTEX
  8
0
10
2956.5
20
56
30
0.00
42
-0.41421356237309503
  0
VERTEX
  8
0
10
2944
20
43.5
30
0.00
42
0
  0
VERTEX
  8
0
10
2656
20
43.5
30
0.00
42
-0.41421356237309503
  0
VERTEX
  8
0
10
2643.5
20
56
30
0.00
42
0
  0
VERTEX
  8
0
10
2643.5
20
294
30
0.00
42
-0.6681786379192989
  0
VERTEX
  8
0
10
2666.606601717798
20
302.1066017177982
30
0.00
42
0
  0
VERTEX
  8
0
10
2694.8908729652603
20
273.8223304703363
30
0.00
42
0
  0
SEQEND
  8
0
  0
LINE
  8
0

62
  40
10
244
20
281.5
30
0.00
11
2756
21
281.5
31
0.00
  0
LINE
  8
0

62
  40
10
244
20
68.5
30
0.00
11
2756
21
68.5
31
0.00
  0
TEXT
  8
TEXT
  7
ROMANS
  41
0.75
62
  7
10
1
20
1
30
0
40
25
  1
SHEAR STEEL
50
0
72
  1
11
1500
21
375
31
0.00
73
  0
  0
TEXT
  8
TEXT
  7
ROMANS
  41
0.75
62
  7
10
1
20
1
30
0
40
12.5
  1
(EXTEND HORIZONTAL BARS FOR 'Ld')
50
0
72
  1
11
1500
21
410
31
0.00
73
  0
  0
TEXT
  8
TEXT
  7
ROMANS
  41
0.75
62
  40
10
1
20
1
30
0
40
25
  1
2200
50
0
72
  1
11
1500
21
462.5
31
0.00
73
  0
  0
TEXT
  8
TEXT
  7
ROMANS
  41
0.75
62
  7
10
1
20
1
30
0
40
25
  1
RIGHT BDR STEEL
50
0
72
  1
11
2800
21
-50
31
0.00
73
  0
  0
TEXT
  8
TEXT
  7
ROMANS
  41
0.75
62
  7
10
1
20
1
30
0
40
25
  1
(RIGHT BDR CONF)
50
0
72
  1
11
2800
21
-100
31
0.00
73
  0
  0
TEXT
  8
TEXT
  7
ROMANS
  41
0.75
62
  40
10
1
20
1
30
0
40
25
  1
400
50
0
72
  1
11
2800
21
462.5
31
0.00
73
  0
  0
TEXT
  8
TEXT
  7
ROMANS
  41
undefined
62
  undefined
10
1
20
1
30
0
40
undefined
  1
undefined
50
undefined
72
  1
11
0.75
21
undefined
31
0.00
73
  0
  0
TEXT
  8
TEXT
  7
ROMANS
  41
0.75
62
  40
10
1
20
1
30
0
40
25
  1
350
50
90
72
  1
11
-112.5
21
175
31
0.00
73
  0
  0
TEXT
  8
TEXT
  7
ROMANT
  41
0.85
62
  22
10
1
20
1
30
0
40
37.5
  1
LWS BELOW OFF 10 LVL
72
  1
11
1500
21
-187.5
31
0.00
73
  0
  0
TEXT
  8
TEXT
  7
ROMANT
  41
0.85
62
  22
10
1
20
1
30
0
40
37.5
  1
(3000 X 350)
72
  1
11
1500
21
-250
31
0.00
73
  0
  0
TEXT
  8
TEXT
  7
ROMANT
  41
0.85
62
  22
10
1
20
1
30
0
40
37.5
  1
M60
72
  1
11
1500
21
-312.5
31
0.00
73
  0
  0
POLYLINE
  8
0

62
  8
66
   1
10
0
20
0
30
0
40
60
41
60
70
1
  0
VERTEX
  8
0
10
1958.3375
20
56
30
0.00
42
1
  0
VERTEX
  8
0
10
1966.4625
20
56
30
0.00
42
1
  0
SEQEND
  8
0
  0
CIRCLE
  8
0

62
    40
10
1962.4
20
56
30
 0
40
8.125
  0
POLYLINE
  8
0

62
  8
66
   1
10
0
20
0
30
0
40
60
41
60
70
1
  0
VERTEX
  8
0
10
1958.3375
20
294
30
0.00
42
1
  0
VERTEX
  8
0
10
1966.4625
20
294
30
0.00
42
1
  0
SEQEND
  8
0
  0
CIRCLE
  8
0

62
    40
10
1962.4
20
294
30
 0
40
8.125
  0
POLYLINE
  8
0

62
  40
66
   1
10
0
20
0
30
0
70
0
  0
VERTEX
  8
0
10
76.17766952966369
20
255.1091270347399
30
0.00
42
0
  0
VERTEX
  8
0
10
47.89339828220179
20
283.3933982822018
30
0.00
42
-0.6681786379192989
  0
VERTEX
  8
0
10
56
20
306.5
30
0.00
42
0
  0
VERTEX
  8
0
10
344
20
306.5
30
0.00
42
-0.41421356237309503
  0
VERTEX
  8
0
10
356.5
20
294
30
0.00
42
0
  0
VERTEX
  8
0
10
356.5
20
56
30
0.00
42
-0.41421356237309503
  0
VERTEX
  8
0
10
344
20
43.5
30
0.00
42
0
  0
VERTEX
  8
0
10
56
20
43.5
30
0.00
42
-0.41421356237309503
  0
VERTEX
  8
0
10
43.5
20
56
30
0.00
42
0
  0
VERTEX
  8
0
10
43.5
20
294
30
0.00
42
-0.6681786379192989
  0
VERTEX
  8
0
10
66.60660171779821
20
302.1066017177982
30
0.00
42
0
  0
VERTEX
  8
0
10
94.89087296526012
20
273.8223304703363
30
0.00
42
0
  0
SEQEND
  8
0
  0
TEXT
  8
TEXT
  7
ROMANS
  41
0.75
62
  7
10
1
20
1
30
0
40
25
  1
LFT BDR STEEL
50
0
72
  1
11
200
21
-50
31
0.00
73
  0
  0
TEXT
  8
TEXT
  7
ROMANS
  41
0.75
62
  7
10
1
20
1
30
0
40
25
  1
(LFT BDR CONF)
50
0
72
  1
11
200
21
-100
31
0.00
73
  0
  0
TEXT
  8
TEXT
  7
ROMANS
  41
0.75
62
  40
10
1
20
1
30
0
40
25
  1
400
50
0
72
  1
11
200
21
462.5
31
0.00
73
  0
  0
POLYLINE
  8
0

62
  40
66
   1
10
0
20
0
30
0
70
0
  0
VERTEX
  8
0
10
2676.1776695296635
20
255.1091270347399
30
0.00
42
0
  0
VERTEX
  8
0
10
2647.893398282202
20
283.3933982822018
30
0.00
42
-0.6681786379192989
  0
VERTEX
  8
0
10
2656
20
306.5
30
0.00
42
0
  0
VERTEX
  8
0
10
2944
20
306.5
30
0.00
42
-0.41421356237309503
  0
VERTEX
  8
0
10
2956.5
20
294
30
0.00
42
0
  0
VERTEX
  8
0
10
2956.5
20
56
30
0.00
42
-0.41421356237309503
  0
VERTEX
  8
0
10
2944
20
43.5
30
0.00
42
0
  0
VERTEX
  8
0
10
2656
20
43.5
30
0.00
42
-0.41421356237309503
  0
VERTEX
  8
0
10
2643.5
20
56
30
0.00
42
0
  0
VERTEX
  8
0
10
2643.5
20
294
30
0.00
42
-0.6681786379192989
  0
VERTEX
  8
0
10
2666.606601717798
20
302.1066017177982
30
0.00
42
0
  0
VERTEX
  8
0
10
2694.8908729652603
20
273.8223304703363
30
0.00
42
0
  0
SEQEND
  8
0
  0
LINE
  8
0

62
  40
10
244
20
281.5
30
0.00
11
2756
21
281.5
31
0.00
  0
LINE
  8
0

62
  40
10
244
20
68.5
30
0.00
11
2756
21
68.5
31
0.00
  0
TEXT
  8
TEXT
  7
ROMANS
  41
0.75
62
  7
10
1
20
1
30
0
40
25
  1
SHEAR STEEL
50
0
72
  1
11
1500
21
375
31
0.00
73
  0
  0
TEXT
  8
TEXT
  7
ROMANS
  41
0.75
62
  7
10
1
20
1
30
0
40
12.5
  1
(EXTEND HORIZONTAL BARS FOR 'Ld')
50
0
72
  1
11
1500
21
410
31
0.00
73
  0
  0
TEXT
  8
TEXT
  7
ROMANS
  41
0.75
62
  40
10
1
20
1
30
0
40
25
  1
2200
50
0
72
  1
11
1500
21
462.5
31
0.00
73
  0
  0
TEXT
  8
TEXT
  7
ROMANS
  41
0.75
62
  7
10
1
20
1
30
0
40
25
  1
RIGHT BDR STEEL
50
0
72
  1
11
2800
21
-50
31
0.00
73
  0
  0
TEXT
  8
TEXT
  7
ROMANS
  41
0.75
62
  7
10
1
20
1
30
0
40
25
  1
(RIGHT BDR CONF)
50
0
72
  1
11
2800
21
-100
31
0.00
73
  0
  0
TEXT
  8
TEXT
  7
ROMANS
  41
0.75
62
  40
10
1
20
1
30
0
40
25
  1
400
50
0
72
  1
11
2800
21
462.5
31
0.00
73
  0
  0
TEXT
  8
TEXT
  7
ROMANS
  41
undefined
62
  undefined
10
1
20
1
30
0
40
undefined
  1
undefined
50
undefined
72
  1
11
0.75
21
undefined
31
0.00
73
  0
  0
TEXT
  8
TEXT
  7
ROMANS
  41
0.75
62
  40
10
1
20
1
30
0
40
25
  1
350
50
90
72
  1
11
-112.5
21
175
31
0.00
73
  0
  0
TEXT
  8
TEXT
  7
ROMANT
  41
0.85
62
  22
10
1
20
1
30
0
40
37.5
  1
LWS BELOW OFF 10 LVL
72
  1
11
1500
21
-187.5
31
0.00
73
  0
  0
TEXT
  8
TEXT
  7
ROMANT
  41
0.85
62
  22
10
1
20
1
30
0
40
37.5
  1
(3000 X 350)
72
  1
11
1500
21
-250
31
0.00
73
  0
  0
TEXT
  8
TEXT
  7
ROMANT
  41
0.85
62
  22
10
1
20
1
30
0
40
37.5
  1
M60
72
  1
11
1500
21
-312.5
31
0.00
73
  0
  0
POLYLINE
  8
0

62
  8
66
   1
10
0
20
0
30
0
40
60
41
60
70
1
  0
VERTEX
  8
0
10
2189.5375
20
56
30
0.00
42
1
  0
VERTEX
  8
0
10
2197.6625
20
56
30
0.00
42
1
  0
SEQEND
  8
0
  0
CIRCLE
  8
0

62
    40
10
2193.6
20
56
30
 0
40
8.125
  0
POLYLINE
  8
0

62
  8
66
   1
10
0
20
0
30
0
40
60
41
60
70
1
  0
VERTEX
  8
0
10
2189.5375
20
294
30
0.00
42
1
  0
VERTEX
  8
0
10
2197.6625
20
294
30
0.00
42
1
  0
SEQEND
  8
0
  0
CIRCLE
  8
0

62
    40
10
2193.6
20
294
30
 0
40
8.125
  0
POLYLINE
  8
0

62
  40
66
   1
10
0
20
0
30
0
70
0
  0
VERTEX
  8
0
10
76.17766952966369
20
255.1091270347399
30
0.00
42
0
  0
VERTEX
  8
0
10
47.89339828220179
20
283.3933982822018
30
0.00
42
-0.6681786379192989
  0
VERTEX
  8
0
10
56
20
306.5
30
0.00
42
0
  0
VERTEX
  8
0
10
344
20
306.5
30
0.00
42
-0.41421356237309503
  0
VERTEX
  8
0
10
356.5
20
294
30
0.00
42
0
  0
VERTEX
  8
0
10
356.5
20
56
30
0.00
42
-0.41421356237309503
  0
VERTEX
  8
0
10
344
20
43.5
30
0.00
42
0
  0
VERTEX
  8
0
10
56
20
43.5
30
0.00
42
-0.41421356237309503
  0
VERTEX
  8
0
10
43.5
20
56
30
0.00
42
0
  0
VERTEX
  8
0
10
43.5
20
294
30
0.00
42
-0.6681786379192989
  0
VERTEX
  8
0
10
66.60660171779821
20
302.1066017177982
30
0.00
42
0
  0
VERTEX
  8
0
10
94.89087296526012
20
273.8223304703363
30
0.00
42
0
  0
SEQEND
  8
0
  0
TEXT
  8
TEXT
  7
ROMANS
  41
0.75
62
  7
10
1
20
1
30
0
40
25
  1
LFT BDR STEEL
50
0
72
  1
11
200
21
-50
31
0.00
73
  0
  0
TEXT
  8
TEXT
  7
ROMANS
  41
0.75
62
  7
10
1
20
1
30
0
40
25
  1
(LFT BDR CONF)
50
0
72
  1
11
200
21
-100
31
0.00
73
  0
  0
TEXT
  8
TEXT
  7
ROMANS
  41
0.75
62
  40
10
1
20
1
30
0
40
25
  1
400
50
0
72
  1
11
200
21
462.5
31
0.00
73
  0
  0
POLYLINE
  8
0

62
  40
66
   1
10
0
20
0
30
0
70
0
  0
VERTEX
  8
0
10
2676.1776695296635
20
255.1091270347399
30
0.00
42
0
  0
VERTEX
  8
0
10
2647.893398282202
20
283.3933982822018
30
0.00
42
-0.6681786379192989
  0
VERTEX
  8
0
10
2656
20
306.5
30
0.00
42
0
  0
VERTEX
  8
0
10
2944
20
306.5
30
0.00
42
-0.41421356237309503
  0
VERTEX
  8
0
10
2956.5
20
294
30
0.00
42
0
  0
VERTEX
  8
0
10
2956.5
20
56
30
0.00
42
-0.41421356237309503
  0
VERTEX
  8
0
10
2944
20
43.5
30
0.00
42
0
  0
VERTEX
  8
0
10
2656
20
43.5
30
0.00
42
-0.41421356237309503
  0
VERTEX
  8
0
10
2643.5
20
56
30
0.00
42
0
  0
VERTEX
  8
0
10
2643.5
20
294
30
0.00
42
-0.6681786379192989
  0
VERTEX
  8
0
10
2666.606601717798
20
302.1066017177982
30
0.00
42
0
  0
VERTEX
  8
0
10
2694.8908729652603
20
273.8223304703363
30
0.00
42
0
  0
SEQEND
  8
0
  0
LINE
  8
0

62
  40
10
244
20
281.5
30
0.00
11
2756
21
281.5
31
0.00
  0
LINE
  8
0

62
  40
10
244
20
68.5
30
0.00
11
2756
21
68.5
31
0.00
  0
TEXT
  8
TEXT
  7
ROMANS
  41
0.75
62
  7
10
1
20
1
30
0
40
25
  1
SHEAR STEEL
50
0
72
  1
11
1500
21
375
31
0.00
73
  0
  0
TEXT
  8
TEXT
  7
ROMANS
  41
0.75
62
  7
10
1
20
1
30
0
40
12.5
  1
(EXTEND HORIZONTAL BARS FOR 'Ld')
50
0
72
  1
11
1500
21
410
31
0.00
73
  0
  0
TEXT
  8
TEXT
  7
ROMANS
  41
0.75
62
  40
10
1
20
1
30
0
40
25
  1
2200
50
0
72
  1
11
1500
21
462.5
31
0.00
73
  0
  0
TEXT
  8
TEXT
  7
ROMANS
  41
0.75
62
  7
10
1
20
1
30
0
40
25
  1
RIGHT BDR STEEL
50
0
72
  1
11
2800
21
-50
31
0.00
73
  0
  0
TEXT
  8
TEXT
  7
ROMANS
  41
0.75
62
  7
10
1
20
1
30
0
40
25
  1
(RIGHT BDR CONF)
50
0
72
  1
11
2800
21
-100
31
0.00
73
  0
  0
TEXT
  8
TEXT
  7
ROMANS
  41
0.75
62
  40
10
1
20
1
30
0
40
25
  1
400
50
0
72
  1
11
2800
21
462.5
31
0.00
73
  0
  0
TEXT
  8
TEXT
  7
ROMANS
  41
undefined
62
  undefined
10
1
20
1
30
0
40
undefined
  1
undefined
50
undefined
72
  1
11
0.75
21
undefined
31
0.00
73
  0
  0
TEXT
  8
TEXT
  7
ROMANS
  41
0.75
62
  40
10
1
20
1
30
0
40
25
  1
350
50
90
72
  1
11
-112.5
21
175
31
0.00
73
  0
  0
TEXT
  8
TEXT
  7
ROMANT
  41
0.85
62
  22
10
1
20
1
30
0
40
37.5
  1
LWS BELOW OFF 10 LVL
72
  1
11
1500
21
-187.5
31
0.00
73
  0
  0
TEXT
  8
TEXT
  7
ROMANT
  41
0.85
62
  22
10
1
20
1
30
0
40
37.5
  1
(3000 X 350)
72
  1
11
1500
21
-250
31
0.00
73
  0
  0
TEXT
  8
TEXT
  7
ROMANT
  41
0.85
62
  22
10
1
20
1
30
0
40
37.5
  1
M60
72
  1
11
1500
21
-312.5
31
0.00
73
  0
  0
POLYLINE
  8
0

62
  8
66
   1
10
0
20
0
30
0
40
60
41
60
70
1
  0
VERTEX
  8
0
10
2420.7375
20
56
30
0.00
42
1
  0
VERTEX
  8
0
10
2428.8625
20
56
30
0.00
42
1
  0
SEQEND
  8
0
  0
CIRCLE
  8
0

62
    40
10
2424.8
20
56
30
 0
40
8.125
  0
POLYLINE
  8
0

62
  8
66
   1
10
0
20
0
30
0
40
60
41
60
70
1
  0
VERTEX
  8
0
10
2420.7375
20
294
30
0.00
42
1
  0
VERTEX
  8
0
10
2428.8625
20
294
30
0.00
42
1
  0
SEQEND
  8
0
  0
CIRCLE
  8
0

62
    40
10
2424.8
20
294
30
 0
40
8.125
  0
POLYLINE
  8
0

62
  40
66
   1
10
0
20
0
30
0
70
0
  0
VERTEX
  8
0
10
76.17766952966369
20
255.1091270347399
30
0.00
42
0
  0
VERTEX
  8
0
10
47.89339828220179
20
283.3933982822018
30
0.00
42
-0.6681786379192989
  0
VERTEX
  8
0
10
56
20
306.5
30
0.00
42
0
  0
VERTEX
  8
0
10
344
20
306.5
30
0.00
42
-0.41421356237309503
  0
VERTEX
  8
0
10
356.5
20
294
30
0.00
42
0
  0
VERTEX
  8
0
10
356.5
20
56
30
0.00
42
-0.41421356237309503
  0
VERTEX
  8
0
10
344
20
43.5
30
0.00
42
0
  0
VERTEX
  8
0
10
56
20
43.5
30
0.00
42
-0.41421356237309503
  0
VERTEX
  8
0
10
43.5
20
56
30
0.00
42
0
  0
VERTEX
  8
0
10
43.5
20
294
30
0.00
42
-0.6681786379192989
  0
VERTEX
  8
0
10
66.60660171779821
20
302.1066017177982
30
0.00
42
0
  0
VERTEX
  8
0
10
94.89087296526012
20
273.8223304703363
30
0.00
42
0
  0
SEQEND
  8
0
  0
TEXT
  8
TEXT
  7
ROMANS
  41
0.75
62
  7
10
1
20
1
30
0
40
25
  1
LFT BDR STEEL
50
0
72
  1
11
200
21
-50
31
0.00
73
  0
  0
TEXT
  8
TEXT
  7
ROMANS
  41
0.75
62
  7
10
1
20
1
30
0
40
25
  1
(LFT BDR CONF)
50
0
72
  1
11
200
21
-100
31
0.00
73
  0
  0
TEXT
  8
TEXT
  7
ROMANS
  41
0.75
62
  40
10
1
20
1
30
0
40
25
  1
400
50
0
72
  1
11
200
21
462.5
31
0.00
73
  0
  0
POLYLINE
  8
0

62
  40
66
   1
10
0
20
0
30
0
70
0
  0
VERTEX
  8
0
10
2676.1776695296635
20
255.1091270347399
30
0.00
42
0
  0
VERTEX
  8
0
10
2647.893398282202
20
283.3933982822018
30
0.00
42
-0.6681786379192989
  0
VERTEX
  8
0
10
2656
20
306.5
30
0.00
42
0
  0
VERTEX
  8
0
10
2944
20
306.5
30
0.00
42
-0.41421356237309503
  0
VERTEX
  8
0
10
2956.5
20
294
30
0.00
42
0
  0
VERTEX
  8
0
10
2956.5
20
56
30
0.00
42
-0.41421356237309503
  0
VERTEX
  8
0
10
2944
20
43.5
30
0.00
42
0
  0
VERTEX
  8
0
10
2656
20
43.5
30
0.00
42
-0.41421356237309503
  0
VERTEX
  8
0
10
2643.5
20
56
30
0.00
42
0
  0
VERTEX
  8
0
10
2643.5
20
294
30
0.00
42
-0.6681786379192989
  0
VERTEX
  8
0
10
2666.606601717798
20
302.1066017177982
30
0.00
42
0
  0
VERTEX
  8
0
10
2694.8908729652603
20
273.8223304703363
30
0.00
42
0
  0
SEQEND
  8
0
  0
LINE
  8
0

62
  40
10
244
20
281.5
30
0.00
11
2756
21
281.5
31
0.00
  0
LINE
  8
0

62
  40
10
244
20
68.5
30
0.00
11
2756
21
68.5
31
0.00
  0
TEXT
  8
TEXT
  7
ROMANS
  41
0.75
62
  7
10
1
20
1
30
0
40
25
  1
SHEAR STEEL
50
0
72
  1
11
1500
21
375
31
0.00
73
  0
  0
TEXT
  8
TEXT
  7
ROMANS
  41
0.75
62
  7
10
1
20
1
30
0
40
12.5
  1
(EXTEND HORIZONTAL BARS FOR 'Ld')
50
0
72
  1
11
1500
21
410
31
0.00
73
  0
  0
TEXT
  8
TEXT
  7
ROMANS
  41
0.75
62
  40
10
1
20
1
30
0
40
25
  1
2200
50
0
72
  1
11
1500
21
462.5
31
0.00
73
  0
  0
TEXT
  8
TEXT
  7
ROMANS
  41
0.75
62
  7
10
1
20
1
30
0
40
25
  1
RIGHT BDR STEEL
50
0
72
  1
11
2800
21
-50
31
0.00
73
  0
  0
TEXT
  8
TEXT
  7
ROMANS
  41
0.75
62
  7
10
1
20
1
30
0
40
25
  1
(RIGHT BDR CONF)
50
0
72
  1
11
2800
21
-100
31
0.00
73
  0
  0
TEXT
  8
TEXT
  7
ROMANS
  41
0.75
62
  40
10
1
20
1
30
0
40
25
  1
400
50
0
72
  1
11
2800
21
462.5
31
0.00
73
  0
  0
TEXT
  8
TEXT
  7
ROMANS
  41
undefined
62
  undefined
10
1
20
1
30
0
40
undefined
  1
undefined
50
undefined
72
  1
11
0.75
21
undefined
31
0.00
73
  0
  0
TEXT
  8
TEXT
  7
ROMANS
  41
0.75
62
  40
10
1
20
1
30
0
40
25
  1
350
50
90
72
  1
11
-112.5
21
175
31
0.00
73
  0
  0
TEXT
  8
TEXT
  7
ROMANT
  41
0.85
62
  22
10
1
20
1
30
0
40
37.5
  1
LWS BELOW OFF 10 LVL
72
  1
11
1500
21
-187.5
31
0.00
73
  0
  0
TEXT
  8
TEXT
  7
ROMANT
  41
0.85
62
  22
10
1
20
1
30
0
40
37.5
  1
(3000 X 350)
72
  1
11
1500
21
-250
31
0.00
73
  0
  0
TEXT
  8
TEXT
  7
ROMANT
  41
0.85
62
  22
10
1
20
1
30
0
40
37.5
  1
M60
72
  1
11
1500
21
-312.5
31
0.00
73
  0
  0
POLYLINE
  8
0

62
  8
66
   1
10
0
20
0
30
0
40
60
41
60
70
1
  0
VERTEX
  8
0
10
2651.9375
20
56
30
0.00
42
1
  0
VERTEX
  8
0
10
2660.0625
20
56
30
0.00
42
1
  0
SEQEND
  8
0
  0
CIRCLE
  8
0

62
    40
10
2656
20
56
30
 0
40
8.125
  0
POLYLINE
  8
0

62
  8
66
   1
10
0
20
0
30
0
40
60
41
60
70
1
  0
VERTEX
  8
0
10
2651.9375
20
294
30
0.00
42
1
  0
VERTEX
  8
0
10
2660.0625
20
294
30
0.00
42
1
  0
SEQEND
  8
0
  0
CIRCLE
  8
0

62
    40
10
2656
20
294
30
 0
40
8.125
  0
POLYLINE
  8
0

62
  8
66
   1
10
0
20
0
30
0
40
60
41
60
70
1
  0
VERTEX
  8
0
10
2651.9375
20
175
30
0.00
42
1
  0
VERTEX
  8
0
10
2660.0625
20
175
30
0.00
42
1
  0
SEQEND
  8
0
  0
CIRCLE
  8
0

62
    40
10
2656
20
175
30
 0
40
8.125
  0
POLYLINE
  8
0

62
  40
66
   1
10
0
20
0
30
0
70
0
  0
VERTEX
  8
0
10
76.17766952966369
20
255.1091270347399
30
0.00
42
0
  0
VERTEX
  8
0
10
47.89339828220179
20
283.3933982822018
30
0.00
42
-0.6681786379192989
  0
VERTEX
  8
0
10
56
20
306.5
30
0.00
42
0
  0
VERTEX
  8
0
10
344
20
306.5
30
0.00
42
-0.41421356237309503
  0
VERTEX
  8
0
10
356.5
20
294
30
0.00
42
0
  0
VERTEX
  8
0
10
356.5
20
56
30
0.00
42
-0.41421356237309503
  0
VERTEX
  8
0
10
344
20
43.5
30
0.00
42
0
  0
VERTEX
  8
0
10
56
20
43.5
30
0.00
42
-0.41421356237309503
  0
VERTEX
  8
0
10
43.5
20
56
30
0.00
42
0
  0
VERTEX
  8
0
10
43.5
20
294
30
0.00
42
-0.6681786379192989
  0
VERTEX
  8
0
10
66.60660171779821
20
302.1066017177982
30
0.00
42
0
  0
VERTEX
  8
0
10
94.89087296526012
20
273.8223304703363
30
0.00
42
0
  0
SEQEND
  8
0
  0
TEXT
  8
TEXT
  7
ROMANS
  41
0.75
62
  7
10
1
20
1
30
0
40
25
  1
LFT BDR STEEL
50
0
72
  1
11
200
21
-50
31
0.00
73
  0
  0
TEXT
  8
TEXT
  7
ROMANS
  41
0.75
62
  7
10
1
20
1
30
0
40
25
  1
(LFT BDR CONF)
50
0
72
  1
11
200
21
-100
31
0.00
73
  0
  0
TEXT
  8
TEXT
  7
ROMANS
  41
0.75
62
  40
10
1
20
1
30
0
40
25
  1
400
50
0
72
  1
11
200
21
462.5
31
0.00
73
  0
  0
POLYLINE
  8
0

62
  40
66
   1
10
0
20
0
30
0
70
0
  0
VERTEX
  8
0
10
2676.1776695296635
20
255.1091270347399
30
0.00
42
0
  0
VERTEX
  8
0
10
2647.893398282202
20
283.3933982822018
30
0.00
42
-0.6681786379192989
  0
VERTEX
  8
0
10
2656
20
306.5
30
0.00
42
0
  0
VERTEX
  8
0
10
2944
20
306.5
30
0.00
42
-0.41421356237309503
  0
VERTEX
  8
0
10
2956.5
20
294
30
0.00
42
0
  0
VERTEX
  8
0
10
2956.5
20
56
30
0.00
42
-0.41421356237309503
  0
VERTEX
  8
0
10
2944
20
43.5
30
0.00
42
0
  0
VERTEX
  8
0
10
2656
20
43.5
30
0.00
42
-0.41421356237309503
  0
VERTEX
  8
0
10
2643.5
20
56
30
0.00
42
0
  0
VERTEX
  8
0
10
2643.5
20
294
30
0.00
42
-0.6681786379192989
  0
VERTEX
  8
0
10
2666.606601717798
20
302.1066017177982
30
0.00
42
0
  0
VERTEX
  8
0
10
2694.8908729652603
20
273.8223304703363
30
0.00
42
0
  0
SEQEND
  8
0
  0
LINE
  8
0

62
  40
10
244
20
281.5
30
0.00
11
2756
21
281.5
31
0.00
  0
LINE
  8
0

62
  40
10
244
20
68.5
30
0.00
11
2756
21
68.5
31
0.00
  0
TEXT
  8
TEXT
  7
ROMANS
  41
0.75
62
  7
10
1
20
1
30
0
40
25
  1
SHEAR STEEL
50
0
72
  1
11
1500
21
375
31
0.00
73
  0
  0
TEXT
  8
TEXT
  7
ROMANS
  41
0.75
62
  7
10
1
20
1
30
0
40
12.5
  1
(EXTEND HORIZONTAL BARS FOR 'Ld')
50
0
72
  1
11
1500
21
410
31
0.00
73
  0
  0
TEXT
  8
TEXT
  7
ROMANS
  41
0.75
62
  40
10
1
20
1
30
0
40
25
  1
2200
50
0
72
  1
11
1500
21
462.5
31
0.00
73
  0
  0
TEXT
  8
TEXT
  7
ROMANS
  41
0.75
62
  7
10
1
20
1
30
0
40
25
  1
RIGHT BDR STEEL
50
0
72
  1
11
2800
21
-50
31
0.00
73
  0
  0
TEXT
  8
TEXT
  7
ROMANS
  41
0.75
62
  7
10
1
20
1
30
0
40
25
  1
(RIGHT BDR CONF)
50
0
72
  1
11
2800
21
-100
31
0.00
73
  0
  0
TEXT
  8
TEXT
  7
ROMANS
  41
0.75
62
  40
10
1
20
1
30
0
40
25
  1
400
50
0
72
  1
11
2800
21
462.5
31
0.00
73
  0
  0
TEXT
  8
TEXT
  7
ROMANS
  41
undefined
62
  undefined
10
1
20
1
30
0
40
undefined
  1
undefined
50
undefined
72
  1
11
0.75
21
undefined
31
0.00
73
  0
  0
TEXT
  8
TEXT
  7
ROMANS
  41
0.75
62
  40
10
1
20
1
30
0
40
25
  1
350
50
90
72
  1
11
-112.5
21
175
31
0.00
73
  0
  0
TEXT
  8
TEXT
  7
ROMANT
  41
0.85
62
  22
10
1
20
1
30
0
40
37.5
  1
LWS BELOW OFF 10 LVL
72
  1
11
1500
21
-187.5
31
0.00
73
  0
  0
TEXT
  8
TEXT
  7
ROMANT
  41
0.85
62
  22
10
1
20
1
30
0
40
37.5
  1
(3000 X 350)
72
  1
11
1500
21
-250
31
0.00
73
  0
  0
TEXT
  8
TEXT
  7
ROMANT
  41
0.85
62
  22
10
1
20
1
30
0
40
37.5
  1
M60
72
  1
11
1500
21
-312.5
31
0.00
73
  0
  0
POLYLINE
  8
0

62
  8
66
   1
10
0
20
0
30
0
40
60
41
60
70
1
  0
VERTEX
  8
0
10
2747.9375
20
56
30
0.00
42
1
  0
VERTEX
  8
0
10
2756.0625
20
56
30
0.00
42
1
  0
SEQEND
  8
0
  0
CIRCLE
  8
0

62
    40
10
2752
20
56
30
 0
40
8.125
  0
POLYLINE
  8
0

62
  8
66
   1
10
0
20
0
30
0
40
60
41
60
70
1
  0
VERTEX
  8
0
10
2747.9375
20
294
30
0.00
42
1
  0
VERTEX
  8
0
10
2756.0625
20
294
30
0.00
42
1
  0
SEQEND
  8
0
  0
CIRCLE
  8
0

62
    40
10
2752
20
294
30
 0
40
8.125
  0
POLYLINE
  8
0

62
  40
66
   1
10
0
20
0
30
0
70
0
  0
VERTEX
  8
0
10
76.17766952966369
20
255.1091270347399
30
0.00
42
0
  0
VERTEX
  8
0
10
47.89339828220179
20
283.3933982822018
30
0.00
42
-0.6681786379192989
  0
VERTEX
  8
0
10
56
20
306.5
30
0.00
42
0
  0
VERTEX
  8
0
10
344
20
306.5
30
0.00
42
-0.41421356237309503
  0
VERTEX
  8
0
10
356.5
20
294
30
0.00
42
0
  0
VERTEX
  8
0
10
356.5
20
56
30
0.00
42
-0.41421356237309503
  0
VERTEX
  8
0
10
344
20
43.5
30
0.00
42
0
  0
VERTEX
  8
0
10
56
20
43.5
30
0.00
42
-0.41421356237309503
  0
VERTEX
  8
0
10
43.5
20
56
30
0.00
42
0
  0
VERTEX
  8
0
10
43.5
20
294
30
0.00
42
-0.6681786379192989
  0
VERTEX
  8
0
10
66.60660171779821
20
302.1066017177982
30
0.00
42
0
  0
VERTEX
  8
0
10
94.89087296526012
20
273.8223304703363
30
0.00
42
0
  0
SEQEND
  8
0
  0
TEXT
  8
TEXT
  7
ROMANS
  41
0.75
62
  7
10
1
20
1
30
0
40
25
  1
LFT BDR STEEL
50
0
72
  1
11
200
21
-50
31
0.00
73
  0
  0
TEXT
  8
TEXT
  7
ROMANS
  41
0.75
62
  7
10
1
20
1
30
0
40
25
  1
(LFT BDR CONF)
50
0
72
  1
11
200
21
-100
31
0.00
73
  0
  0
TEXT
  8
TEXT
  7
ROMANS
  41
0.75
62
  40
10
1
20
1
30
0
40
25
  1
400
50
0
72
  1
11
200
21
462.5
31
0.00
73
  0
  0
POLYLINE
  8
0

62
  40
66
   1
10
0
20
0
30
0
70
0
  0
VERTEX
  8
0
10
2676.1776695296635
20
255.1091270347399
30
0.00
42
0
  0
VERTEX
  8
0
10
2647.893398282202
20
283.3933982822018
30
0.00
42
-0.6681786379192989
  0
VERTEX
  8
0
10
2656
20
306.5
30
0.00
42
0
  0
VERTEX
  8
0
10
2944
20
306.5
30
0.00
42
-0.41421356237309503
  0
VERTEX
  8
0
10
2956.5
20
294
30
0.00
42
0
  0
VERTEX
  8
0
10
2956.5
20
56
30
0.00
42
-0.41421356237309503
  0
VERTEX
  8
0
10
2944
20
43.5
30
0.00
42
0
  0
VERTEX
  8
0
10
2656
20
43.5
30
0.00
42
-0.41421356237309503
  0
VERTEX
  8
0
10
2643.5
20
56
30
0.00
42
0
  0
VERTEX
  8
0
10
2643.5
20
294
30
0.00
42
-0.6681786379192989
  0
VERTEX
  8
0
10
2666.606601717798
20
302.1066017177982
30
0.00
42
0
  0
VERTEX
  8
0
10
2694.8908729652603
20
273.8223304703363
30
0.00
42
0
  0
SEQEND
  8
0
  0
LINE
  8
0

62
  40
10
244
20
281.5
30
0.00
11
2756
21
281.5
31
0.00
  0
LINE
  8
0

62
  40
10
244
20
68.5
30
0.00
11
2756
21
68.5
31
0.00
  0
TEXT
  8
TEXT
  7
ROMANS
  41
0.75
62
  7
10
1
20
1
30
0
40
25
  1
SHEAR STEEL
50
0
72
  1
11
1500
21
375
31
0.00
73
  0
  0
TEXT
  8
TEXT
  7
ROMANS
  41
0.75
62
  7
10
1
20
1
30
0
40
12.5
  1
(EXTEND HORIZONTAL BARS FOR 'Ld')
50
0
72
  1
11
1500
21
410
31
0.00
73
  0
  0
TEXT
  8
TEXT
  7
ROMANS
  41
0.75
62
  40
10
1
20
1
30
0
40
25
  1
2200
50
0
72
  1
11
1500
21
462.5
31
0.00
73
  0
  0
TEXT
  8
TEXT
  7
ROMANS
  41
0.75
62
  7
10
1
20
1
30
0
40
25
  1
RIGHT BDR STEEL
50
0
72
  1
11
2800
21
-50
31
0.00
73
  0
  0
TEXT
  8
TEXT
  7
ROMANS
  41
0.75
62
  7
10
1
20
1
30
0
40
25
  1
(RIGHT BDR CONF)
50
0
72
  1
11
2800
21
-100
31
0.00
73
  0
  0
TEXT
  8
TEXT
  7
ROMANS
  41
0.75
62
  40
10
1
20
1
30
0
40
25
  1
400
50
0
72
  1
11
2800
21
462.5
31
0.00
73
  0
  0
TEXT
  8
TEXT
  7
ROMANS
  41
undefined
62
  undefined
10
1
20
1
30
0
40
undefined
  1
undefined
50
undefined
72
  1
11
0.75
21
undefined
31
0.00
73
  0
  0
TEXT
  8
TEXT
  7
ROMANS
  41
0.75
62
  40
10
1
20
1
30
0
40
25
  1
350
50
90
72
  1
11
-112.5
21
175
31
0.00
73
  0
  0
TEXT
  8
TEXT
  7
ROMANT
  41
0.85
62
  22
10
1
20
1
30
0
40
37.5
  1
LWS BELOW OFF 10 LVL
72
  1
11
1500
21
-187.5
31
0.00
73
  0
  0
TEXT
  8
TEXT
  7
ROMANT
  41
0.85
62
  22
10
1
20
1
30
0
40
37.5
  1
(3000 X 350)
72
  1
11
1500
21
-250
31
0.00
73
  0
  0
TEXT
  8
TEXT
  7
ROMANT
  41
0.85
62
  22
10
1
20
1
30
0
40
37.5
  1
M60
72
  1
11
1500
21
-312.5
31
0.00
73
  0
  0
POLYLINE
  8
0

62
  8
66
   1
10
0
20
0
30
0
40
60
41
60
70
1
  0
VERTEX
  8
0
10
2843.9375
20
56
30
0.00
42
1
  0
VERTEX
  8
0
10
2852.0625
20
56
30
0.00
42
1
  0
SEQEND
  8
0
  0
CIRCLE
  8
0

62
    40
10
2848
20
56
30
 0
40
8.125
  0
POLYLINE
  8
0

62
  8
66
   1
10
0
20
0
30
0
40
60
41
60
70
1
  0
VERTEX
  8
0
10
2843.9375
20
294
30
0.00
42
1
  0
VERTEX
  8
0
10
2852.0625
20
294
30
0.00
42
1
  0
SEQEND
  8
0
  0
CIRCLE
  8
0

62
    40
10
2848
20
294
30
 0
40
8.125
  0
POLYLINE
  8
0

62
  40
66
   1
10
0
20
0
30
0
70
0
  0
VERTEX
  8
0
10
76.17766952966369
20
255.1091270347399
30
0.00
42
0
  0
VERTEX
  8
0
10
47.89339828220179
20
283.3933982822018
30
0.00
42
-0.6681786379192989
  0
VERTEX
  8
0
10
56
20
306.5
30
0.00
42
0
  0
VERTEX
  8
0
10
344
20
306.5
30
0.00
42
-0.41421356237309503
  0
VERTEX
  8
0
10
356.5
20
294
30
0.00
42
0
  0
VERTEX
  8
0
10
356.5
20
56
30
0.00
42
-0.41421356237309503
  0
VERTEX
  8
0
10
344
20
43.5
30
0.00
42
0
  0
VERTEX
  8
0
10
56
20
43.5
30
0.00
42
-0.41421356237309503
  0
VERTEX
  8
0
10
43.5
20
56
30
0.00
42
0
  0
VERTEX
  8
0
10
43.5
20
294
30
0.00
42
-0.6681786379192989
  0
VERTEX
  8
0
10
66.60660171779821
20
302.1066017177982
30
0.00
42
0
  0
VERTEX
  8
0
10
94.89087296526012
20
273.8223304703363
30
0.00
42
0
  0
SEQEND
  8
0
  0
TEXT
  8
TEXT
  7
ROMANS
  41
0.75
62
  7
10
1
20
1
30
0
40
25
  1
LFT BDR STEEL
50
0
72
  1
11
200
21
-50
31
0.00
73
  0
  0
TEXT
  8
TEXT
  7
ROMANS
  41
0.75
62
  7
10
1
20
1
30
0
40
25
  1
(LFT BDR CONF)
50
0
72
  1
11
200
21
-100
31
0.00
73
  0
  0
TEXT
  8
TEXT
  7
ROMANS
  41
0.75
62
  40
10
1
20
1
30
0
40
25
  1
400
50
0
72
  1
11
200
21
462.5
31
0.00
73
  0
  0
POLYLINE
  8
0

62
  40
66
   1
10
0
20
0
30
0
70
0
  0
VERTEX
  8
0
10
2676.1776695296635
20
255.1091270347399
30
0.00
42
0
  0
VERTEX
  8
0
10
2647.893398282202
20
283.3933982822018
30
0.00
42
-0.6681786379192989
  0
VERTEX
  8
0
10
2656
20
306.5
30
0.00
42
0
  0
VERTEX
  8
0
10
2944
20
306.5
30
0.00
42
-0.41421356237309503
  0
VERTEX
  8
0
10
2956.5
20
294
30
0.00
42
0
  0
VERTEX
  8
0
10
2956.5
20
56
30
0.00
42
-0.41421356237309503
  0
VERTEX
  8
0
10
2944
20
43.5
30
0.00
42
0
  0
VERTEX
  8
0
10
2656
20
43.5
30
0.00
42
-0.41421356237309503
  0
VERTEX
  8
0
10
2643.5
20
56
30
0.00
42
0
  0
VERTEX
  8
0
10
2643.5
20
294
30
0.00
42
-0.6681786379192989
  0
VERTEX
  8
0
10
2666.606601717798
20
302.1066017177982
30
0.00
42
0
  0
VERTEX
  8
0
10
2694.8908729652603
20
273.8223304703363
30
0.00
42
0
  0
SEQEND
  8
0
  0
LINE
  8
0

62
  40
10
244
20
281.5
30
0.00
11
2756
21
281.5
31
0.00
  0
LINE
  8
0

62
  40
10
244
20
68.5
30
0.00
11
2756
21
68.5
31
0.00
  0
TEXT
  8
TEXT
  7
ROMANS
  41
0.75
62
  7
10
1
20
1
30
0
40
25
  1
SHEAR STEEL
50
0
72
  1
11
1500
21
375
31
0.00
73
  0
  0
TEXT
  8
TEXT
  7
ROMANS
  41
0.75
62
  7
10
1
20
1
30
0
40
12.5
  1
(EXTEND HORIZONTAL BARS FOR 'Ld')
50
0
72
  1
11
1500
21
410
31
0.00
73
  0
  0
TEXT
  8
TEXT
  7
ROMANS
  41
0.75
62
  40
10
1
20
1
30
0
40
25
  1
2200
50
0
72
  1
11
1500
21
462.5
31
0.00
73
  0
  0
TEXT
  8
TEXT
  7
ROMANS
  41
0.75
62
  7
10
1
20
1
30
0
40
25
  1
RIGHT BDR STEEL
50
0
72
  1
11
2800
21
-50
31
0.00
73
  0
  0
TEXT
  8
TEXT
  7
ROMANS
  41
0.75
62
  7
10
1
20
1
30
0
40
25
  1
(RIGHT BDR CONF)
50
0
72
  1
11
2800
21
-100
31
0.00
73
  0
  0
TEXT
  8
TEXT
  7
ROMANS
  41
0.75
62
  40
10
1
20
1
30
0
40
25
  1
400
50
0
72
  1
11
2800
21
462.5
31
0.00
73
  0
  0
TEXT
  8
TEXT
  7
ROMANS
  41
undefined
62
  undefined
10
1
20
1
30
0
40
undefined
  1
undefined
50
undefined
72
  1
11
0.75
21
undefined
31
0.00
73
  0
  0
TEXT
  8
TEXT
  7
ROMANS
  41
0.75
62
  40
10
1
20
1
30
0
40
25
  1
350
50
90
72
  1
11
-112.5
21
175
31
0.00
73
  0
  0
TEXT
  8
TEXT
  7
ROMANT
  41
0.85
62
  22
10
1
20
1
30
0
40
37.5
  1
LWS BELOW OFF 10 LVL
72
  1
11
1500
21
-187.5
31
0.00
73
  0
  0
TEXT
  8
TEXT
  7
ROMANT
  41
0.85
62
  22
10
1
20
1
30
0
40
37.5
  1
(3000 X 350)
72
  1
11
1500
21
-250
31
0.00
73
  0
  0
TEXT
  8
TEXT
  7
ROMANT
  41
0.85
62
  22
10
1
20
1
30
0
40
37.5
  1
M60
72
  1
11
1500
21
-312.5
31
0.00
73
  0
  0
POLYLINE
  8
0

62
  8
66
   1
10
0
20
0
30
0
40
60
41
60
70
1
  0
VERTEX
  8
0
10
2939.9375
20
56
30
0.00
42
1
  0
VERTEX
  8
0
10
2948.0625
20
56
30
0.00
42
1
  0
SEQEND
  8
0
  0
CIRCLE
  8
0

62
    40
10
2944
20
56
30
 0
40
8.125
  0
POLYLINE
  8
0

62
  8
66
   1
10
0
20
0
30
0
40
60
41
60
70
1
  0
VERTEX
  8
0
10
2939.9375
20
294
30
0.00
42
1
  0
VERTEX
  8
0
10
2948.0625
20
294
30
0.00
42
1
  0
SEQEND
  8
0
  0
CIRCLE
  8
0

62
    40
10
2944
20
294
30
 0
40
8.125
  0
POLYLINE
  8
0

62
  8
66
   1
10
0
20
0
30
0
40
60
41
60
70
1
  0
VERTEX
  8
0
10
2939.9375
20
175
30
0.00
42
1
  0
VERTEX
  8
0
10
2948.0625
20
175
30
0.00
42
1
  0
SEQEND
  8
0
  0
CIRCLE
  8
0

62
    40
10
2944
20
175
30
 0
40
8.125
  0
POLYLINE
  8
0

62
  40
66
   1
10
0
20
0
30
0
70
0
  0
VERTEX
  8
0
10
76.17766952966369
20
255.1091270347399
30
0.00
42
0
  0
VERTEX
  8
0
10
47.89339828220179
20
283.3933982822018
30
0.00
42
-0.6681786379192989
  0
VERTEX
  8
0
10
56
20
306.5
30
0.00
42
0
  0
VERTEX
  8
0
10
344
20
306.5
30
0.00
42
-0.41421356237309503
  0
VERTEX
  8
0
10
356.5
20
294
30
0.00
42
0
  0
VERTEX
  8
0
10
356.5
20
56
30
0.00
42
-0.41421356237309503
  0
VERTEX
  8
0
10
344
20
43.5
30
0.00
42
0
  0
VERTEX
  8
0
10
56
20
43.5
30
0.00
42
-0.41421356237309503
  0
VERTEX
  8
0
10
43.5
20
56
30
0.00
42
0
  0
VERTEX
  8
0
10
43.5
20
294
30
0.00
42
-0.6681786379192989
  0
VERTEX
  8
0
10
66.60660171779821
20
302.1066017177982
30
0.00
42
0
  0
VERTEX
  8
0
10
94.89087296526012
20
273.8223304703363
30
0.00
42
0
  0
SEQEND
  8
0
  0
TEXT
  8
TEXT
  7
ROMANS
  41
0.75
62
  7
10
1
20
1
30
0
40
25
  1
LFT BDR STEEL
50
0
72
  1
11
200
21
-50
31
0.00
73
  0
  0
TEXT
  8
TEXT
  7
ROMANS
  41
0.75
62
  7
10
1
20
1
30
0
40
25
  1
(LFT BDR CONF)
50
0
72
  1
11
200
21
-100
31
0.00
73
  0
  0
TEXT
  8
TEXT
  7
ROMANS
  41
0.75
62
  40
10
1
20
1
30
0
40
25
  1
400
50
0
72
  1
11
200
21
462.5
31
0.00
73
  0
  0
POLYLINE
  8
0

62
  40
66
   1
10
0
20
0
30
0
70
0
  0
VERTEX
  8
0
10
2676.1776695296635
20
255.1091270347399
30
0.00
42
0
  0
VERTEX
  8
0
10
2647.893398282202
20
283.3933982822018
30
0.00
42
-0.6681786379192989
  0
VERTEX
  8
0
10
2656
20
306.5
30
0.00
42
0
  0
VERTEX
  8
0
10
2944
20
306.5
30
0.00
42
-0.41421356237309503
  0
VERTEX
  8
0
10
2956.5
20
294
30
0.00
42
0
  0
VERTEX
  8
0
10
2956.5
20
56
30
0.00
42
-0.41421356237309503
  0
VERTEX
  8
0
10
2944
20
43.5
30
0.00
42
0
  0
VERTEX
  8
0
10
2656
20
43.5
30
0.00
42
-0.41421356237309503
  0
VERTEX
  8
0
10
2643.5
20
56
30
0.00
42
0
  0
VERTEX
  8
0
10
2643.5
20
294
30
0.00
42
-0.6681786379192989
  0
VERTEX
  8
0
10
2666.606601717798
20
302.1066017177982
30
0.00
42
0
  0
VERTEX
  8
0
10
2694.8908729652603
20
273.8223304703363
30
0.00
42
0
  0
SEQEND
  8
0
  0
LINE
  8
0

62
  40
10
244
20
281.5
30
0.00
11
2756
21
281.5
31
0.00
  0
LINE
  8
0

62
  40
10
244
20
68.5
30
0.00
11
2756
21
68.5
31
0.00
  0
TEXT
  8
TEXT
  7
ROMANS
  41
0.75
62
  7
10
1
20
1
30
0
40
25
  1
SHEAR STEEL
50
0
72
  1
11
1500
21
375
31
0.00
73
  0
  0
TEXT
  8
TEXT
  7
ROMANS
  41
0.75
62
  7
10
1
20
1
30
0
40
12.5
  1
(EXTEND HORIZONTAL BARS FOR 'Ld')
50
0
72
  1
11
1500
21
410
31
0.00
73
  0
  0
TEXT
  8
TEXT
  7
ROMANS
  41
0.75
62
  40
10
1
20
1
30
0
40
25
  1
2200
50
0
72
  1
11
1500
21
462.5
31
0.00
73
  0
  0
TEXT
  8
TEXT
  7
ROMANS
  41
0.75
62
  7
10
1
20
1
30
0
40
25
  1
RIGHT BDR STEEL
50
0
72
  1
11
2800
21
-50
31
0.00
73
  0
  0
TEXT
  8
TEXT
  7
ROMANS
  41
0.75
62
  7
10
1
20
1
30
0
40
25
  1
(RIGHT BDR CONF)
50
0
72
  1
11
2800
21
-100
31
0.00
73
  0
  0
TEXT
  8
TEXT
  7
ROMANS
  41
0.75
62
  40
10
1
20
1
30
0
40
25
  1
400
50
0
72
  1
11
2800
21
462.5
31
0.00
73
  0
  0
TEXT
  8
TEXT
  7
ROMANS
  41
undefined
62
  undefined
10
1
20
1
30
0
40
undefined
  1
undefined
50
undefined
72
  1
11
0.75
21
undefined
31
0.00
73
  0
  0
TEXT
  8
TEXT
  7
ROMANS
  41
0.75
62
  40
10
1
20
1
30
0
40
25
  1
350
50
90
72
  1
11
-112.5
21
175
31
0.00
73
  0
  0
TEXT
  8
TEXT
  7
ROMANT
  41
0.85
62
  22
10
1
20
1
30
0
40
37.5
  1
LWS BELOW OFF 10 LVL
72
  1
11
1500
21
-187.5
31
0.00
73
  0
  0
TEXT
  8
TEXT
  7
ROMANT
  41
0.85
62
  22
10
1
20
1
30
0
40
37.5
  1
(3000 X 350)
72
  1
11
1500
21
-250
31
0.00
73
  0
  0
TEXT
  8
TEXT
  7
ROMANT
  41
0.85
62
  22
10
1
20
1
30
0
40
37.5
  1
M60
72
  1
11
1500
21
-312.5
31
0.00
73
  0
  0
ENDSEC
  0
EOF
